Nobile.ufo
<glyph name="exclam" format="1">
  <advance width="730"></advance>
  <unicode hex="0021"></unicode>
  <outline>
    <contour>
      <point x="461" y="-16" type="line"></point>
      <point x="461" y="186" type="line"></point>
      <point x="252" y="186" type="line"></point>
      <point x="252" y="-16" type="line"></point>
    </contour>
    <contour>
      <point x="448" y="399" type="line"></point>
      <point x="448" y="1579" type="line"></point>
      <point x="274" y="1579" type="line"></point>
      <point x="274" y="399" type="line"></point>
    </contour>
  </outline>
</glyph>
<glyph name="numbersign" format="1">
  <advance width="962"></advance>
  <unicode hex="0023"></unicode>
  <outline>
    <contour>
      <point x="190" y="295" type="line"></point>
      <point x="331" y="295" type="line"></point>
      <point x="364" y="561" type="line"></point>
      <point x="550" y="561" type="line"></point>
      <point x="518" y="295" type="line"></point>
      <point x="659" y="295" type="line"></point>
      <point x="690" y="561" type="line"></point>
      <point x="878" y="561" type="line"></point>
      <point x="878" y="684" type="line"></point>
      <point x="702" y="684" type="line"></point>
      <point x="729" y="905" type="line"></point>
      <point x="901" y="905" type="line"></point>
      <point x="901" y="1030" type="line"></point>
      <point x="741" y="1030" type="line"></point>
      <point x="772" y="1307" type="line"></point>
      <point x="630" y="1307" type="line"></point>
      <point x="602" y="1030" type="line"></point>
      <point x="413" y="1030" type="line"></point>
      <point x="444" y="1309" type="line"></point>
      <point x="305" y="1309" type="line"></point>
      <point x="274" y="1030" type="line"></point>
      <point x="85" y="1030" type="line"></point>
      <point x="85" y="905" type="line"></point>
      <point x="260" y="905" type="line"></point>
      <point x="233" y="684" type="line"></point>
      <point x="57" y="684" type="line"></point>
      <point x="57" y="561" type="line"></point>
      <point x="223" y="561" type="line"></point>
    </contour>
    <contour>
      <point x="376" y="684" type="line"></point>
      <point x="403" y="905" type="line"></point>
      <point x="585" y="905" type="line"></point>
      <point x="559" y="684" type="line"></point>
    </contour>
  </outline>
</glyph>
<glyph name="dollar" format="1">
  <advance width="1028"/>
  <unicode hex="0024"/>
  <outline>
    <contour>
      <point x="561" y="-178" type="curve"/>
      <point x="664" y="-178" type="line"/>
      <point x="664" y="-178"/>
      <point x="664" y="1580"/>
      <point x="664" y="1580" type="curve"/>
      <point x="561" y="1580" type="line"/>
      <point x="561" y="1580"/>
      <point x="561" y="-178"/>
    </contour>
    <component base="s" xOffset="92" yOffset="121"/>
  </outline>
</glyph>
<glyph name="parenleft" format="1">
  <advance width="862"></advance>
  <unicode hex="0028"></unicode>
  <outline>
    <contour>
      <point x="592" y="-205" type="curve"></point>
      <point x="675" y="-97" type="line"></point>
      <point x="468" y="64"></point>
      <point x="389" y="450"></point>
      <point x="389" y="694" type="curve" smooth="yes"></point>
      <point x="389" y="965"></point>
      <point x="480" y="1307"></point>
      <point x="691" y="1493" type="curve"></point>
      <point x="580" y="1595" type="line"></point>
      <point x="317" y="1406"></point>
      <point x="203" y="1003"></point>
      <point x="203" y="696" type="curve" smooth="yes"></point>
      <point x="203" y="392"></point>
      <point x="317" y="-30"></point>
    </contour>
  </outline>
</glyph>
<glyph name="parenright" format="1">
  <advance width="862"></advance>
  <unicode hex="0029"></unicode>
  <outline>
    <contour>
      <point x="262" y="-205" type="line"></point>
      <point x="546" y="-7"></point>
      <point x="651" y="382"></point>
      <point x="651" y="710" type="curve" smooth="yes"></point>
      <point x="651" y="1021"></point>
      <point x="533" y="1413"></point>
      <point x="262" y="1599" type="curve"></point>
      <point x="179" y="1491" type="line"></point>
      <point x="385" y="1319"></point>
      <point x="464" y="947"></point>
      <point x="464" y="694" type="curve" smooth="yes"></point>
      <point x="464" y="430"></point>
      <point x="371" y="81"></point>
      <point x="162" y="-99" type="curve"></point>
    </contour>
  </outline>
</glyph>
<glyph name="asterisk" format="1">
  <advance width="896"></advance>
  <unicode hex="002A"></unicode>
  <outline>
    <contour>
      <point x="599" y="815" type="line"></point>
      <point x="701" y="872" type="line"></point>
      <point x="531" y="1145" type="line"></point>
      <point x="840" y="1145" type="line"></point>
      <point x="840" y="1237" type="line"></point>
      <point x="529" y="1237" type="line"></point>
      <point x="687" y="1509" type="line"></point>
      <point x="584" y="1567" type="line"></point>
      <point x="445" y="1292" type="line"></point>
      <point x="306" y="1567" type="line"></point>
      <point x="203" y="1509" type="line"></point>
      <point x="361" y="1237" type="line"></point>
      <point x="50" y="1237" type="line"></point>
      <point x="50" y="1145" type="line"></point>
      <point x="359" y="1145" type="line"></point>
      <point x="189" y="872" type="line"></point>
      <point x="291" y="815" type="line"></point>
      <point x="445" y="1090" type="line"></point>
    </contour>
  </outline>
</glyph>
<glyph name="slash" format="1">
  <advance width="995"></advance>
  <unicode hex="002F"></unicode>
  <outline>
    <contour>
      <point x="284" y="-179" type="line"></point>
      <point x="908" y="1669" type="line"></point>
      <point x="739" y="1731" type="line"></point>
      <point x="114" y="-117" type="line"></point>
    </contour>
  </outline>
</glyph>
<glyph name="one" format="1">
  <advance width="796"></advance>
  <unicode hex="0031"></unicode>
  <outline>
    <contour>
      <point x="427" y="0" type="line"></point>
      <point x="614" y="0" type="line"></point>
      <point x="614" y="1202" type="line"></point>
      <point x="424" y="1202" type="line"></point>
      <point x="167" y="1083" type="line"></point>
      <point x="220" y="957" type="line"></point>
      <point x="427" y="1057" type="line"></point>
    </contour>
  </outline>
</glyph>
<glyph name="four" format="1">
  <advance width="1194"></advance>
  <unicode hex="0034"></unicode>
  <outline>
    <contour>
      <point x="782" y="-260" type="line"></point>
      <point x="953" y="-260" type="line"></point>
      <point x="953" y="68" type="line"></point>
      <point x="1139" y="68" type="line"></point>
      <point x="1139" y="207" type="line"></point>
      <point x="953" y="207" type="line"></point>
      <point x="953" y="1169" type="line"></point>
      <point x="791" y="1208" type="line"></point>
      <point x="107" y="205" type="line"></point>
      <point x="135" y="68" type="line"></point>
      <point x="782" y="68" type="line"></point>
    </contour>
    <contour>
      <point x="292" y="205" type="line"></point>
      <point x="782" y="930" type="line"></point>
      <point x="782" y="205" type="line"></point>
    </contour>
  </outline>
</glyph>
<glyph name="eight" format="1">
  <advance width="1294"></advance>
  <unicode hex="0038"></unicode>
  <outline>
    <contour>
      <point x="641" y="-148" type="curve" smooth="yes"></point>
      <point x="883" y="-148"></point>
      <point x="1108" y="-41"></point>
      <point x="1108" y="231" type="curve" smooth="yes"></point>
      <point x="1108" y="416"></point>
      <point x="1032" y="576"></point>
      <point x="846" y="634" type="curve"></point>
      <point x="1001" y="687"></point>
      <point x="1108" y="795"></point>
      <point x="1108" y="966" type="curve" smooth="yes"></point>
      <point x="1108" y="1227"></point>
      <point x="870" y="1334"></point>
      <point x="641" y="1334" type="curve" smooth="yes"></point>
      <point x="414" y="1334"></point>
      <point x="162" y="1231"></point>
      <point x="162" y="968" type="curve" smooth="yes"></point>
      <point x="162" y="798"></point>
      <point x="269" y="687"></point>
      <point x="424" y="636" type="curve"></point>
      <point x="238" y="578"></point>
      <point x="162" y="418"></point>
      <point x="162" y="233" type="curve" smooth="yes"></point>
      <point x="162" y="-41"></point>
      <point x="400" y="-148"></point>
    </contour>
    <contour>
      <point x="641" y="-9" type="curve" smooth="yes"></point>
      <point x="451" y="-9"></point>
      <point x="340" y="54"></point>
      <point x="340" y="255" type="curve" smooth="yes"></point>
      <point x="340" y="430"></point>
      <point x="460" y="575"></point>
      <point x="641" y="575" type="curve" smooth="yes"></point>
      <point x="820" y="575"></point>
      <point x="930" y="422"></point>
      <point x="930" y="253" type="curve" smooth="yes"></point>
      <point x="930" y="54"></point>
      <point x="833" y="-9"></point>
    </contour>
    <contour>
      <point x="641" y="691" type="curve" smooth="yes"></point>
      <point x="487" y="691"></point>
      <point x="340" y="805"></point>
      <point x="340" y="966" type="curve" smooth="yes"></point>
      <point x="340" y="1145"></point>
      <point x="487" y="1199"></point>
      <point x="641" y="1199" type="curve" smooth="yes"></point>
      <point x="797" y="1199"></point>
      <point x="930" y="1140"></point>
      <point x="930" y="964" type="curve" smooth="yes"></point>
      <point x="930" y="806"></point>
      <point x="794" y="691"></point>
    </contour>
  </outline>
</glyph>
<glyph name="colon" format="1">
  <advance width="696"></advance>
  <unicode hex="003A"></unicode>
  <outline>
    <contour>
      <point x="209" y="0" type="line"></point>
      <point x="479" y="0" type="line"></point>
      <point x="479" y="281" type="line"></point>
      <point x="209" y="281" type="line"></point>
    </contour>
    <contour>
      <point x="209" y="583" type="line"></point>
      <point x="479" y="583" type="line"></point>
      <point x="479" y="864" type="line"></point>
      <point x="209" y="864" type="line"></point>
    </contour>
  </outline>
</glyph>
<glyph name="less" format="1">
  <advance width="962"></advance>
  <unicode hex="003C"></unicode>
  <outline>
    <contour>
      <point x="740" y="60" type="line"></point>
      <point x="842" y="170" type="line"></point>
      <point x="291" y="663" type="line"></point>
      <point x="842" y="1156" type="line"></point>
      <point x="740" y="1266" type="line"></point>
      <point x="85" y="663" type="line"></point>
    </contour>
  </outline>
</glyph>
<glyph name="equal" format="1">
  <advance width="929"></advance>
  <unicode hex="003D"></unicode>
  <outline>
    <contour>
      <point x="160" y="280" type="line"></point>
      <point x="748" y="280" type="line"></point>
      <point x="748" y="411" type="line"></point>
      <point x="160" y="411" type="line"></point>
    </contour>
    <contour>
      <point x="160" y="508" type="line"></point>
      <point x="748" y="508" type="line"></point>
      <point x="748" y="639" type="line"></point>
      <point x="160" y="639" type="line"></point>
    </contour>
  </outline>
</glyph>
<glyph name="greater" format="1">
  <advance width="962"></advance>
  <unicode hex="003E"></unicode>
  <outline>
    <contour>
      <point x="201" y="60" type="line"></point>
      <point x="856" y="663" type="line"></point>
      <point x="201" y="1266" type="line"></point>
      <point x="99" y="1156" type="line"></point>
      <point x="650" y="663" type="line"></point>
      <point x="99" y="170" type="line"></point>
    </contour>
  </outline>
</glyph>
<glyph name="question" format="1">
  <advance width="1095"></advance>
  <unicode hex="003F"></unicode>
  <outline>
    <contour>
      <point x="248" y="292" type="line"></point>
      <point x="428" y="292" type="line"></point>
      <point x="428" y="675" type="line"></point>
      <point x="689" y="767"></point>
      <point x="962" y="896"></point>
      <point x="962" y="1216" type="curve" smooth="yes"></point>
      <point x="962" y="1499"></point>
      <point x="720" y="1579"></point>
      <point x="479" y="1579" type="curve" smooth="yes"></point>
      <point x="351" y="1579"></point>
      <point x="186" y="1540"></point>
      <point x="73" y="1475" type="curve"></point>
      <point x="132" y="1332" type="line"></point>
      <point x="221" y="1388"></point>
      <point x="357" y="1418"></point>
      <point x="460" y="1418" type="curve" smooth="yes"></point>
      <point x="623" y="1418"></point>
      <point x="771" y="1392"></point>
      <point x="771" y="1197" type="curve" smooth="yes"></point>
      <point x="771" y="947"></point>
      <point x="438" y="841"></point>
      <point x="248" y="777" type="curve"></point>
    </contour>
    <contour>
      <point x="329" y="-40" type="curve" smooth="yes"></point>
      <point x="386" y="-40"></point>
      <point x="434" y="7"></point>
      <point x="434" y="64" type="curve" smooth="yes"></point>
      <point x="434" y="118"></point>
      <point x="388" y="169"></point>
      <point x="333" y="169" type="curve" smooth="yes"></point>
      <point x="279" y="169"></point>
      <point x="225" y="127"></point>
      <point x="225" y="70" type="curve" smooth="yes"></point>
      <point x="225" y="12"></point>
      <point x="269" y="-40"></point>
    </contour>
  </outline>
</glyph>
<glyph name="at" format="1">
  <advance width="1725"/>
  <unicode hex="0040"/>
  <outline>
    <contour>
      <point x="929" y="-26" type="curve" smooth="yes"/>
      <point x="1051" y="-26"/>
      <point x="1248" y="10"/>
      <point x="1367" y="53" type="curve"/>
      <point x="1324" y="180" type="line"/>
      <point x="1227" y="139"/>
      <point x="1067" y="101"/>
      <point x="942" y="101" type="curve" smooth="yes"/>
      <point x="554" y="101"/>
      <point x="251" y="321"/>
      <point x="260" y="740" type="curve" smooth="yes"/>
      <point x="270" y="1166"/>
      <point x="548" y="1459"/>
      <point x="987" y="1459" type="curve" smooth="yes"/>
      <point x="1352" y="1459"/>
      <point x="1619" y="1287"/>
      <point x="1619" y="887" type="curve" smooth="yes"/>
      <point x="1619" y="665"/>
      <point x="1501" y="440"/>
      <point x="1402" y="440" type="curve" smooth="yes"/>
      <point x="1373" y="440"/>
      <point x="1346" y="465"/>
      <point x="1349" y="515" type="curve"/>
      <point x="1390" y="1118" type="line"/>
      <point x="1398" y="1198"/>
      <point x="1310" y="1258"/>
      <point x="1064" y="1257" type="curve" smooth="yes"/>
      <point x="777" y="1256"/>
      <point x="507" y="1048"/>
      <point x="476" y="717" type="curve" smooth="yes"/>
      <point x="454" y="488"/>
      <point x="564" y="327"/>
      <point x="802" y="328" type="curve" smooth="yes"/>
      <point x="1015" y="329"/>
      <point x="1182" y="484"/>
      <point x="1247" y="738" type="curve"/>
      <point x="1247" y="690"/>
      <point x="1245" y="543"/>
      <point x="1245" y="488" type="curve" smooth="yes"/>
      <point x="1245" y="383"/>
      <point x="1295" y="328"/>
      <point x="1384" y="328" type="curve" smooth="yes"/>
      <point x="1564" y="328"/>
      <point x="1754" y="555"/>
      <point x="1754" y="886" type="curve" smooth="yes"/>
      <point x="1754" y="1360"/>
      <point x="1418" y="1585"/>
      <point x="982" y="1585" type="curve" smooth="yes"/>
      <point x="481" y="1585"/>
      <point x="122" y="1234"/>
      <point x="111" y="740" type="curve" smooth="yes"/>
      <point x="100" y="240"/>
      <point x="461" y="-26"/>
    </contour>
    <contour>
      <point x="825" y="449" type="curve" smooth="yes"/>
      <point x="667" y="448"/>
      <point x="603" y="566"/>
      <point x="618" y="717" type="curve" smooth="yes"/>
      <point x="641" y="958"/>
      <point x="826" y="1150"/>
      <point x="1069" y="1150" type="curve" smooth="yes"/>
      <point x="1128" y="1151"/>
      <point x="1188" y="1145"/>
      <point x="1244" y="1133" type="curve"/>
      <point x="1217" y="880"/>
      <point x="1165" y="450"/>
    </contour>
  </outline>
</glyph>
<glyph name="B" format="1">
  <advance width="1427"/>
  <unicode hex="0042"/>
  <outline>
    <contour>
      <point x="183" y="0" type="line"/>
      <point x="603" y="0" type="line" smooth="yes"/>
      <point x="904" y="0"/>
      <point x="1303" y="46"/>
      <point x="1303" y="434" type="curve" smooth="yes"/>
      <point x="1303" y="699"/>
      <point x="1143" y="829"/>
      <point x="887" y="858" type="curve"/>
      <point x="1089" y="888"/>
      <point x="1221" y="976"/>
      <point x="1221" y="1188" type="curve" smooth="yes"/>
      <point x="1221" y="1570"/>
      <point x="843" y="1579"/>
      <point x="544" y="1579" type="curve" smooth="yes"/>
      <point x="183" y="1579" type="line"/>
    </contour>
    <contour>
      <point x="377" y="143" type="line"/>
      <point x="377" y="784" type="line"/>
      <point x="640" y="784" type="line" smooth="yes"/>
      <point x="878" y="784"/>
      <point x="1121" y="759"/>
      <point x="1121" y="466" type="curve" smooth="yes"/>
      <point x="1121" y="152"/>
      <point x="852" y="143"/>
      <point x="603" y="143" type="curve" smooth="yes"/>
    </contour>
    <contour>
      <point x="377" y="913" type="line"/>
      <point x="377" y="1436" type="line"/>
      <point x="548" y="1436" type="line" smooth="yes"/>
      <point x="738" y="1436"/>
      <point x="1056" y="1450"/>
      <point x="1056" y="1188" type="curve" smooth="yes"/>
      <point x="1056" y="935"/>
      <point x="843" y="913"/>
      <point x="636" y="913" type="curve" smooth="yes"/>
    </contour>
  </outline>
</glyph>
<glyph name="D" format="1">
  <advance width="1559"/>
  <unicode hex="0044"/>
  <outline>
    <contour>
      <point x="384" y="143" type="line"/>
      <point x="384" y="1436" type="line"/>
      <point x="723" y="1436" type="line" smooth="yes"/>
      <point x="1112" y="1436"/>
      <point x="1202" y="1111"/>
      <point x="1202" y="789" type="curve" smooth="yes"/>
      <point x="1202" y="465"/>
      <point x="1116" y="143"/>
      <point x="723" y="143" type="curve" smooth="yes"/>
    </contour>
    <contour>
      <point x="190" y="0" type="line"/>
      <point x="723" y="0" type="line" smooth="yes"/>
      <point x="1219" y="0"/>
      <point x="1396" y="338"/>
      <point x="1396" y="788" type="curve" smooth="yes"/>
      <point x="1396" y="1238"/>
      <point x="1220" y="1579"/>
      <point x="723" y="1579" type="curve" smooth="yes"/>
      <point x="190" y="1579" type="line"/>
    </contour>
  </outline>
</glyph>
<glyph name="F" format="1">
  <advance width="1227"/>
  <unicode hex="0046"/>
  <outline>
    <contour>
      <point x="197" y="0" type="line"/>
      <point x="393" y="0" type="line"/>
      <point x="393" y="762" type="line"/>
      <point x="1048" y="762" type="line"/>
      <point x="1048" y="879" type="line"/>
      <point x="393" y="879" type="line"/>
      <point x="393" y="1436" type="line"/>
      <point x="1109" y="1436" type="line"/>
      <point x="1109" y="1579" type="line"/>
      <point x="197" y="1579" type="line"/>
    </contour>
  </outline>
</glyph>
<glyph name="H" format="1">
  <advance width="1626"/>
  <unicode hex="0048"/>
  <outline>
    <contour>
      <point x="190" y="0" type="line"/>
      <point x="384" y="0" type="line"/>
      <point x="384" y="764" type="line"/>
      <point x="1216" y="764" type="line"/>
      <point x="1216" y="0" type="line"/>
      <point x="1410" y="0" type="line"/>
      <point x="1410" y="1579" type="line"/>
      <point x="1216" y="1579" type="line"/>
      <point x="1216" y="879" type="line"/>
      <point x="384" y="879" type="line"/>
      <point x="384" y="1579" type="line"/>
      <point x="190" y="1579" type="line"/>
    </contour>
  </outline>
</glyph>
<glyph name="J" format="1">
  <advance width="929"/>
  <unicode hex="004A"/>
  <outline>
    <contour>
      <point x="250" y="-90" type="line"/>
      <point x="658" y="-90"/>
      <point x="717" y="168"/>
      <point x="717" y="514" type="curve" smooth="yes"/>
      <point x="717" y="1579" type="line"/>
      <point x="525" y="1579" type="line"/>
      <point x="525" y="479" type="line" smooth="yes"/>
      <point x="525" y="203"/>
      <point x="511" y="83"/>
      <point x="203" y="37" type="curve"/>
    </contour>
  </outline>
</glyph>
<glyph name="M" format="1">
  <advance width="1924"/>
  <unicode hex="004D"/>
  <outline>
    <contour>
      <point x="190" y="0" type="line"/>
      <point x="364" y="0" type="line"/>
      <point x="364" y="1399" type="line"/>
      <point x="868" y="112" type="line"/>
      <point x="1034" y="112" type="line"/>
      <point x="1549" y="1399" type="line"/>
      <point x="1549" y="0" type="line"/>
      <point x="1722" y="0" type="line"/>
      <point x="1722" y="1579" type="line"/>
      <point x="1441" y="1579" type="line"/>
      <point x="956" y="320" type="line"/>
      <point x="471" y="1579" type="line"/>
      <point x="190" y="1579" type="line"/>
    </contour>
  </outline>
</glyph>
<glyph name="N" format="1">
  <advance width="1659"/>
  <unicode hex="004E"/>
  <outline>
    <contour>
      <point x="210" y="0" type="line"/>
      <point x="382" y="0" type="line"/>
      <point x="382" y="1404" type="line"/>
      <point x="1201" y="0" type="line"/>
      <point x="1463" y="0" type="line"/>
      <point x="1463" y="1579" type="line"/>
      <point x="1291" y="1579" type="line"/>
      <point x="1291" y="175" type="line"/>
      <point x="472" y="1579" type="line"/>
      <point x="210" y="1579" type="line"/>
    </contour>
  </outline>
</glyph>
<glyph name="Q" format="1">
  <advance width="1526"/>
  <unicode hex="0051"/>
  <outline>
    <contour>
      <point x="683" y="-426" type="line"/>
      <point x="781" y="-298" type="line"/>
      <point x="350" y="55" type="line"/>
      <point x="128" y="46" type="line"/>
    </contour>
    <component base="O" xOffset="-536.5177"/>
  </outline>
</glyph>
<glyph name="R" format="1">
  <advance width="1460"/>
  <unicode hex="0052"/>
  <outline>
    <contour>
      <point x="190" y="0" type="line"/>
      <point x="384" y="0" type="line"/>
      <point x="384" y="733" type="line"/>
      <point x="701" y="733" type="line" smooth="yes"/>
      <point x="1034" y="733"/>
      <point x="1084" y="653"/>
      <point x="1098" y="381" type="curve" smooth="yes"/>
      <point x="1118" y="0" type="line"/>
      <point x="1312" y="0" type="line"/>
      <point x="1292" y="405" type="line" smooth="yes"/>
      <point x="1280" y="649"/>
      <point x="1215" y="775"/>
      <point x="1012" y="809" type="curve"/>
      <point x="1209" y="848"/>
      <point x="1306" y="968"/>
      <point x="1306" y="1160" type="curve" smooth="yes"/>
      <point x="1306" y="1579"/>
      <point x="963" y="1579"/>
      <point x="593" y="1579" type="curve" smooth="yes"/>
      <point x="190" y="1579" type="line"/>
    </contour>
    <contour>
      <point x="384" y="863" type="line"/>
      <point x="384" y="1436" type="line"/>
      <point x="593" y="1436" type="line" smooth="yes"/>
      <point x="867" y="1436"/>
      <point x="1136" y="1465"/>
      <point x="1136" y="1150" type="curve" smooth="yes"/>
      <point x="1136" y="885"/>
      <point x="902" y="863"/>
      <point x="702" y="863" type="curve" smooth="yes"/>
    </contour>
  </outline>
</glyph>
<glyph name="S" format="1">
  <advance width="1327"/>
  <unicode hex="0053"/>
  <outline>
    <contour>
      <point x="641" y="-20" type="curve" smooth="yes"/>
      <point x="958" y="-20"/>
      <point x="1182" y="103"/>
      <point x="1182" y="414" type="curve" smooth="yes"/>
      <point x="1182" y="718"/>
      <point x="1009" y="804"/>
      <point x="768" y="891" type="curve" smooth="yes"/>
      <point x="705" y="913"/>
      <point x="635" y="937"/>
      <point x="573" y="959" type="curve" smooth="yes"/>
      <point x="420" y="1013"/>
      <point x="307" y="1057"/>
      <point x="307" y="1197" type="curve" smooth="yes"/>
      <point x="307" y="1398"/>
      <point x="486" y="1447"/>
      <point x="664" y="1447" type="curve" smooth="yes"/>
      <point x="796" y="1447"/>
      <point x="941" y="1395"/>
      <point x="1029" y="1336" type="curve"/>
      <point x="1096" y="1473" type="line"/>
      <point x="958" y="1565"/>
      <point x="794" y="1599"/>
      <point x="625" y="1599" type="curve" smooth="yes"/>
      <point x="367" y="1599"/>
      <point x="128" y="1469"/>
      <point x="128" y="1192" type="curve" smooth="yes"/>
      <point x="128" y="941"/>
      <point x="293" y="864"/>
      <point x="486" y="798" type="curve" smooth="yes"/>
      <point x="560" y="772"/>
      <point x="639" y="749"/>
      <point x="709" y="724" type="curve" smooth="yes"/>
      <point x="880" y="664"/>
      <point x="1004" y="591"/>
      <point x="1004" y="416" type="curve" smooth="yes"/>
      <point x="1004" y="193"/>
      <point x="857" y="132"/>
      <point x="648" y="132" type="curve" smooth="yes"/>
      <point x="447" y="132"/>
      <point x="256" y="230"/>
      <point x="200" y="268" type="curve"/>
      <point x="200" y="268"/>
      <point x="135" y="122"/>
      <point x="135" y="122" type="curve"/>
      <point x="256" y="45"/>
      <point x="499" y="-20"/>
    </contour>
  </outline>
</glyph>
<glyph name="W" format="1">
  <advance width="1858"/>
  <unicode hex="0057"/>
  <outline>
    <contour>
      <point x="342" y="0" type="line"/>
      <point x="609" y="0" type="line"/>
      <point x="930" y="1333" type="line"/>
      <point x="1237" y="0" type="line"/>
      <point x="1503" y="0" type="line"/>
      <point x="1899" y="1579" type="line"/>
      <point x="1719" y="1579" type="line"/>
      <point x="1369" y="175" type="line"/>
      <point x="1067" y="1489" type="line"/>
      <point x="793" y="1489" type="line"/>
      <point x="477" y="175" type="line"/>
      <point x="127" y="1579" type="line"/>
      <point x="-50" y="1579" type="line"/>
    </contour>
  </outline>
</glyph>
<glyph name="Y" format="1">
  <advance width="1161"/>
  <unicode hex="0059"/>
  <outline>
    <contour>
      <point x="487" y="0" type="line"/>
      <point x="677" y="0" type="line"/>
      <point x="677" y="557" type="line"/>
      <point x="1191" y="1579" type="line"/>
      <point x="1000" y="1579" type="line"/>
      <point x="582" y="748" type="line"/>
      <point x="442" y="1024"/>
      <point x="305" y="1301"/>
      <point x="170" y="1579" type="curve"/>
      <point x="-23" y="1579" type="line"/>
      <point x="487" y="557" type="line"/>
    </contour>
  </outline>
</glyph>
<glyph name="asciicircum" format="1">
  <advance width="929"></advance>
  <unicode hex="005E"></unicode>
  <outline>
    <contour>
      <point x="112" y="510" type="line"></point>
      <point x="240" y="432" type="line"></point>
      <point x="452" y="809" type="line"></point>
      <point x="664" y="432" type="line"></point>
      <point x="792" y="510" type="line"></point>
      <point x="500" y="1011" type="line"></point>
      <point x="404" y="1011" type="line"></point>
    </contour>
  </outline>
</glyph>
<glyph name="grave" format="1">
  <advance width="763"></advance>
  <unicode hex="0060"></unicode>
  <outline>
    <contour>
      <point x="561" y="328" type="line"></point>
      <point x="618" y="354" type="line"></point>
      <point x="308" y="860" type="line"></point>
      <point x="147" y="759" type="line"></point>
    </contour>
  </outline>
</glyph>
<glyph name="a" format="1">
  <advance width="1161"/>
  <unicode hex="0061"/>
  <outline>
    <contour>
      <point x="475" y="-20" type="curve" smooth="yes"/>
      <point x="636" y="-20"/>
      <point x="771" y="44"/>
      <point x="865" y="178" type="curve"/>
      <point x="892" y="0" type="line"/>
      <point x="1026" y="0" type="line"/>
      <point x="1026" y="683" type="line" smooth="yes"/>
      <point x="1026" y="1191"/>
      <point x="680" y="1287"/>
      <point x="160" y="1106" type="curve"/>
      <point x="208" y="969" type="line"/>
      <point x="706" y="1153"/>
      <point x="843" y="998"/>
      <point x="843" y="753" type="curve" smooth="yes"/>
      <point x="843" y="645" type="line"/>
      <point x="766" y="674"/>
      <point x="627" y="699"/>
      <point x="545" y="699" type="curve" smooth="yes"/>
      <point x="294" y="699"/>
      <point x="99" y="603"/>
      <point x="99" y="343" type="curve" smooth="yes"/>
      <point x="99" y="97"/>
      <point x="246" y="-20"/>
    </contour>
    <contour>
      <point x="521" y="118" type="curve" smooth="yes"/>
      <point x="359" y="118"/>
      <point x="276" y="177"/>
      <point x="276" y="351" type="curve" smooth="yes"/>
      <point x="276" y="551"/>
      <point x="427" y="580"/>
      <point x="592" y="580" type="curve" smooth="yes"/>
      <point x="676" y="580"/>
      <point x="761" y="566"/>
      <point x="843" y="542" type="curve"/>
      <point x="843" y="271" type="line"/>
      <point x="755" y="185"/>
      <point x="644" y="118"/>
    </contour>
  </outline>
</glyph>
<glyph name="c" format="1">
  <advance width="1095"/>
  <unicode hex="0063"/>
  <outline>
    <contour>
      <point x="666" y="-20" type="curve" smooth="yes"/>
      <point x="822" y="-20"/>
      <point x="926" y="24"/>
      <point x="1043" y="98" type="curve"/>
      <point x="982" y="222" type="line"/>
      <point x="903" y="166"/>
      <point x="799" y="115"/>
      <point x="682" y="117" type="curve" smooth="yes"/>
      <point x="416" y="122"/>
      <point x="293" y="309"/>
      <point x="293" y="580" type="curve" smooth="yes"/>
      <point x="293" y="810"/>
      <point x="389" y="1050"/>
      <point x="644" y="1050" type="curve" smooth="yes"/>
      <point x="754" y="1050"/>
      <point x="857" y="1007"/>
      <point x="940" y="931" type="curve"/>
      <point x="995" y="1057" type="line"/>
      <point x="887" y="1145"/>
      <point x="771" y="1190"/>
      <point x="637" y="1190" type="curve" smooth="yes"/>
      <point x="303" y="1190"/>
      <point x="99" y="925"/>
      <point x="99" y="580" type="curve" smooth="yes"/>
      <point x="99" y="238"/>
      <point x="316" y="-20"/>
    </contour>
  </outline>
</glyph>
<glyph name="d" format="1">
  <advance width="1261"/>
  <unicode hex="0064"/>
  <outline>
    <contour>
      <point x="583" y="-20" type="curve" smooth="yes"/>
      <point x="723" y="-20"/>
      <point x="864" y="71"/>
      <point x="947" y="179" type="curve"/>
      <point x="975" y="0" type="line"/>
      <point x="1116" y="0" type="line"/>
      <point x="1116" y="1614" type="line"/>
      <point x="926" y="1579" type="line"/>
      <point x="926" y="1028" type="line"/>
      <point x="845" y="1129"/>
      <point x="688" y="1190"/>
      <point x="561" y="1190" type="curve" smooth="yes"/>
      <point x="229" y="1190"/>
      <point x="99" y="870"/>
      <point x="99" y="584" type="curve" smooth="yes"/>
      <point x="99" y="275"/>
      <point x="233" y="-20"/>
    </contour>
    <contour>
      <point x="579" y="117" type="curve" smooth="yes"/>
      <point x="323" y="117"/>
      <point x="281" y="381"/>
      <point x="281" y="587" type="curve" smooth="yes"/>
      <point x="281" y="787"/>
      <point x="323" y="1047"/>
      <point x="573" y="1047" type="curve" smooth="yes"/>
      <point x="703" y="1047"/>
      <point x="825" y="980"/>
      <point x="926" y="903" type="curve"/>
      <point x="926" y="275" type="line"/>
      <point x="843" y="181"/>
      <point x="701" y="117"/>
    </contour>
  </outline>
</glyph>
<glyph name="e" format="1">
  <advance width="1161"/>
  <unicode hex="0065"/>
  <outline>
    <contour>
      <point x="290" y="682" type="line"/>
      <point x="307" y="882"/>
      <point x="387" y="1057"/>
      <point x="615" y="1057" type="curve" smooth="yes"/>
      <point x="820" y="1057"/>
      <point x="889" y="898"/>
      <point x="889" y="717" type="curve" smooth="yes"/>
      <point x="889" y="682" type="line"/>
    </contour>
    <contour>
      <point x="99" y="211"/>
      <point x="336" y="-20"/>
      <point x="657" y="-20" type="curve" smooth="yes"/>
      <point x="781" y="-20"/>
      <point x="913" y="14"/>
      <point x="1040" y="102" type="curve"/>
      <point x="981" y="222" type="line"/>
      <point x="877" y="150"/>
      <point x="774" y="117"/>
      <point x="680" y="117" type="curve" smooth="yes"/>
      <point x="456" y="117"/>
      <point x="286" y="275"/>
      <point x="286" y="563" type="curve"/>
      <point x="1046" y="563" type="line"/>
      <point x="1052" y="600"/>
      <point x="1057" y="638"/>
      <point x="1057" y="676" type="curve" smooth="yes"/>
      <point x="1057" y="957"/>
      <point x="920" y="1190"/>
      <point x="614" y="1190" type="curve" smooth="yes"/>
      <point x="262" y="1190"/>
      <point x="99" y="897"/>
      <point x="99" y="578" type="curve" smooth="yes"/>
    </contour>
  </outline>
</glyph>
<glyph name="f" format="1">
  <advance width="796"/>
  <unicode hex="0066"/>
  <outline>
    <contour>
      <point x="239" y="0" type="line"/>
      <point x="429" y="0" type="line"/>
      <point x="429" y="1064" type="line"/>
      <point x="777" y="1064" type="line"/>
      <point x="777" y="1169" type="line"/>
      <point x="429" y="1169" type="line"/>
      <point x="429" y="1332"/>
      <point x="429" y="1516"/>
      <point x="585" y="1516" type="curve" smooth="yes"/>
      <point x="644" y="1516"/>
      <point x="712" y="1493"/>
      <point x="758" y="1457" type="curve"/>
      <point x="812" y="1567" type="line"/>
      <point x="747" y="1615"/>
      <point x="651" y="1659"/>
      <point x="570" y="1659" type="curve" smooth="yes"/>
      <point x="295" y="1659"/>
      <point x="239" y="1444"/>
      <point x="239" y="1169" type="curve"/>
      <point x="44" y="1169" type="line"/>
      <point x="44" y="1064" type="line"/>
      <point x="239" y="1064" type="line"/>
    </contour>
  </outline>
</glyph>
<glyph name="g" format="1">
  <advance width="1161"/>
  <unicode hex="0067"/>
  <outline>
    <contour>
      <point x="517" y="-412" type="curve" smooth="yes"/>
      <point x="823" y="-412"/>
      <point x="1098" y="-351"/>
      <point x="1098" y="-81" type="curve" smooth="yes"/>
      <point x="1098" y="201"/>
      <point x="897" y="219"/>
      <point x="640" y="219" type="curve" smooth="yes"/>
      <point x="344" y="219" type="line"/>
      <point x="344" y="219"/>
      <point x="303" y="261"/>
      <point x="303" y="321" type="curve" smooth="yes"/>
      <point x="303" y="385"/>
      <point x="354" y="471"/>
      <point x="354" y="471" type="curve" smooth="yes"/>
      <point x="354" y="471"/>
      <point x="418" y="428"/>
      <point x="548" y="428" type="curve" smooth="yes"/>
      <point x="790" y="428"/>
      <point x="1002" y="547"/>
      <point x="1002" y="824" type="curve"/>
      <point x="1000" y="900"/>
      <point x="959" y="990"/>
      <point x="915" y="1026" type="curve"/>
      <point x="1153" y="1026" type="line"/>
      <point x="1153" y="1171" type="line"/>
      <point x="1044" y="1170"/>
      <point x="947" y="1165"/>
      <point x="848" y="1114" type="curve"/>
      <point x="769" y="1175"/>
      <point x="665" y="1190"/>
      <point x="568" y="1190" type="curve" smooth="yes"/>
      <point x="295" y="1190"/>
      <point x="115" y="1009"/>
      <point x="115" y="818" type="curve" smooth="yes"/>
      <point x="115" y="631"/>
      <point x="226" y="538"/>
      <point x="280" y="510" type="curve"/>
      <point x="177" y="418"/>
      <point x="141" y="338"/>
      <point x="141" y="274" type="curve" smooth="yes"/>
      <point x="141" y="180"/>
      <point x="220" y="122"/>
      <point x="283" y="111" type="curve"/>
      <point x="184" y="65"/>
      <point x="117" y="-17"/>
      <point x="117" y="-132" type="curve" smooth="yes"/>
      <point x="117" y="-375"/>
      <point x="315" y="-412"/>
    </contour>
    <contour>
      <point x="527" y="-278" type="curve" smooth="yes"/>
      <point x="404" y="-278"/>
      <point x="275" y="-257"/>
      <point x="275" y="-117" type="curve" smooth="yes"/>
      <point x="275" y="-42"/>
      <point x="309" y="40"/>
      <point x="372" y="80" type="curve"/>
      <point x="688" y="80" type="line" smooth="yes"/>
      <point x="825" y="80"/>
      <point x="936" y="94"/>
      <point x="936" y="-86" type="curve" smooth="yes"/>
      <point x="936" y="-259"/>
      <point x="733" y="-278"/>
    </contour>
    <contour>
      <point x="551" y="548" type="curve"/>
      <point x="379" y="548"/>
      <point x="275" y="662"/>
      <point x="275" y="817" type="curve" smooth="yes"/>
      <point x="275" y="960"/>
      <point x="370" y="1059"/>
      <point x="569" y="1059" type="curve" smooth="yes"/>
      <point x="754" y="1059"/>
      <point x="841" y="945"/>
      <point x="841" y="794" type="curve" smooth="yes"/>
      <point x="841" y="684"/>
      <point x="754" y="548"/>
    </contour>
  </outline>
</glyph>
<glyph name="i" format="1">
  <advance width="564"></advance>
  <unicode hex="0069"></unicode>
  <outline>
    <contour>
      <point x="196" y="0" type="line"></point>
      <point x="378" y="0" type="line"></point>
      <point x="378" y="1169" type="line"></point>
      <point x="196" y="1169" type="line"></point>
    </contour>
    <contour>
      <point x="291" y="1347" type="curve" smooth="yes"></point>
      <point x="356" y="1347"></point>
      <point x="399" y="1400"></point>
      <point x="399" y="1462" type="curve" smooth="yes"></point>
      <point x="399" y="1524"></point>
      <point x="356" y="1577"></point>
      <point x="291" y="1577" type="curve" smooth="yes"></point>
      <point x="228" y="1577"></point>
      <point x="179" y="1524"></point>
      <point x="179" y="1462" type="curve" smooth="yes"></point>
      <point x="179" y="1399"></point>
      <point x="227" y="1347"></point>
    </contour>
  </outline>
</glyph>
<glyph name="k" format="1">
  <advance width="1095"/>
  <unicode hex="006B"/>
  <outline>
    <contour>
      <point x="140" y="0" type="line"/>
      <point x="330" y="0" type="line"/>
      <point x="330" y="468" type="line"/>
      <point x="436" y="574" type="line"/>
      <point x="909" y="0" type="line"/>
      <point x="1127" y="0" type="line"/>
      <point x="575" y="658" type="line"/>
      <point x="1083" y="1169" type="line"/>
      <point x="852" y="1169" type="line"/>
      <point x="330" y="643" type="line"/>
      <point x="330" y="1614" type="line"/>
      <point x="140" y="1579" type="line"/>
    </contour>
  </outline>
</glyph>
<glyph name="n" format="1">
  <advance width="1261"/>
  <unicode hex="006E"/>
  <outline>
    <contour>
      <point x="147" y="0" type="line"/>
      <point x="333" y="0" type="line"/>
      <point x="333" y="880" type="line"/>
      <point x="415" y="956"/>
      <point x="616" y="1050"/>
      <point x="727" y="1050" type="curve" smooth="yes"/>
      <point x="918" y="1050"/>
      <point x="933" y="884"/>
      <point x="933" y="727" type="curve" smooth="yes"/>
      <point x="933" y="0" type="line"/>
      <point x="1119" y="0" type="line"/>
      <point x="1119" y="727" type="line" smooth="yes"/>
      <point x="1119" y="975"/>
      <point x="1035" y="1189"/>
      <point x="760" y="1189" type="curve" smooth="yes"/>
      <point x="611" y="1189"/>
      <point x="401" y="1101"/>
      <point x="307" y="982" type="curve"/>
      <point x="283" y="1169" type="line"/>
      <point x="147" y="1169" type="line"/>
    </contour>
  </outline>
</glyph>
<glyph name="o" format="1">
  <advance width="1261"/>
  <unicode hex="006F"/>
  <outline>
    <contour>
      <point x="632" y="118" type="curve" smooth="yes"/>
      <point x="366" y="118"/>
      <point x="286" y="352"/>
      <point x="286" y="582" type="curve" smooth="yes"/>
      <point x="286" y="812"/>
      <point x="365" y="1050"/>
      <point x="632" y="1050" type="curve" smooth="yes"/>
      <point x="899" y="1050"/>
      <point x="978" y="812"/>
      <point x="978" y="582" type="curve" smooth="yes"/>
      <point x="978" y="351"/>
      <point x="900" y="118"/>
    </contour>
    <contour>
      <point x="632" y="-20" type="curve" smooth="yes"/>
      <point x="995" y="-20"/>
      <point x="1173" y="244"/>
      <point x="1173" y="582" type="curve" smooth="yes"/>
      <point x="1173" y="919"/>
      <point x="996" y="1189"/>
      <point x="632" y="1189" type="curve" smooth="yes"/>
      <point x="269" y="1189"/>
      <point x="92" y="918"/>
      <point x="92" y="582" type="curve" smooth="yes"/>
      <point x="92" y="245"/>
      <point x="269" y="-20"/>
    </contour>
  </outline>
</glyph>
<glyph name="p" format="1">
  <advance width="1227"/>
  <unicode hex="0070"/>
  <outline>
    <contour>
      <point x="140" y="-487" type="line"/>
      <point x="326" y="-465" type="line"/>
      <point x="326" y="153" type="line"/>
      <point x="394" y="84"/>
      <point x="485" y="-20"/>
      <point x="654" y="-20" type="curve" smooth="yes"/>
      <point x="996" y="-20"/>
      <point x="1131" y="291"/>
      <point x="1131" y="584" type="curve" smooth="yes"/>
      <point x="1131" y="918"/>
      <point x="967" y="1189"/>
      <point x="673" y="1189" type="curve" smooth="yes"/>
      <point x="522" y="1189"/>
      <point x="413" y="1125"/>
      <point x="310" y="1009" type="curve"/>
      <point x="277" y="1169" type="line"/>
      <point x="140" y="1169" type="line"/>
    </contour>
    <contour>
      <point x="646" y="118" type="curve" smooth="yes"/>
      <point x="485" y="118"/>
      <point x="379" y="214"/>
      <point x="326" y="274" type="curve"/>
      <point x="326" y="901" type="line"/>
      <point x="406" y="979"/>
      <point x="530" y="1050"/>
      <point x="651" y="1050" type="curve" smooth="yes"/>
      <point x="904" y="1050"/>
      <point x="937" y="759"/>
      <point x="937" y="567" type="curve" smooth="yes"/>
      <point x="937" y="355"/>
      <point x="867" y="118"/>
    </contour>
  </outline>
</glyph>
<glyph name="q" format="1">
  <advance width="1261"/>
  <unicode hex="0071"/>
  <outline>
    <contour>
      <point x="926" y="-502" type="line"/>
      <point x="1116" y="-479" type="line"/>
      <point x="1116" y="1169" type="line"/>
      <point x="977" y="1169" type="line"/>
      <point x="940" y="975" type="line"/>
      <point x="859" y="1097"/>
      <point x="709" y="1190"/>
      <point x="560" y="1190" type="curve" smooth="yes"/>
      <point x="218" y="1190"/>
      <point x="99" y="878"/>
      <point x="99" y="584" type="curve" smooth="yes"/>
      <point x="99" y="288"/>
      <point x="230" y="-20"/>
      <point x="570" y="-20" type="curve" smooth="yes"/>
      <point x="708" y="-20"/>
      <point x="842" y="46"/>
      <point x="926" y="153" type="curve"/>
    </contour>
    <contour>
      <point x="589" y="117" type="curve" smooth="yes"/>
      <point x="349" y="117"/>
      <point x="281" y="385"/>
      <point x="281" y="584" type="curve" smooth="yes"/>
      <point x="281" y="774"/>
      <point x="327" y="1047"/>
      <point x="573" y="1047" type="curve" smooth="yes"/>
      <point x="693" y="1047"/>
      <point x="842" y="975"/>
      <point x="926" y="891" type="curve"/>
      <point x="926" y="268" type="line"/>
      <point x="844" y="184"/>
      <point x="703" y="117"/>
    </contour>
  </outline>
</glyph>
<glyph name="r" format="1">
  <advance width="763"/>
  <unicode hex="0072"/>
  <outline>
    <contour>
      <point x="160" y="0" type="line"/>
      <point x="350" y="0" type="line"/>
      <point x="350" y="894" type="line"/>
      <point x="425" y="966"/>
      <point x="668" y="1026"/>
      <point x="734" y="1026" type="curve"/>
      <point x="715" y="1180" type="line"/>
      <point x="598" y="1180"/>
      <point x="415" y="1083"/>
      <point x="333" y="977" type="curve"/>
      <point x="303" y="1169" type="line"/>
      <point x="160" y="1169" type="line"/>
    </contour>
  </outline>
</glyph>
<glyph name="s" format="1">
  <advance width="1028"/>
  <unicode hex="0073"/>
  <outline>
    <contour>
      <point x="497" y="-20" type="curve" smooth="yes"/>
      <point x="716" y="-20"/>
      <point x="924" y="74"/>
      <point x="924" y="322" type="curve" smooth="yes"/>
      <point x="924" y="530"/>
      <point x="779" y="615"/>
      <point x="609" y="675" type="curve" smooth="yes"/>
      <point x="563" y="691"/>
      <point x="515" y="705"/>
      <point x="472" y="720" type="curve" smooth="yes"/>
      <point x="359" y="760"/>
      <point x="273" y="810"/>
      <point x="273" y="892" type="curve"/>
      <point x="274" y="1027"/>
      <point x="410" y="1054"/>
      <point x="516" y="1054" type="curve" smooth="yes"/>
      <point x="628" y="1054"/>
      <point x="728" y="1012"/>
      <point x="816" y="947" type="curve"/>
      <point x="873" y="1079" type="line"/>
      <point x="789" y="1147"/>
      <point x="630" y="1190"/>
      <point x="500" y="1190" type="curve" smooth="yes"/>
      <point x="310" y="1190"/>
      <point x="112" y="1099"/>
      <point x="112" y="877" type="curve" smooth="yes"/>
      <point x="112" y="697"/>
      <point x="246" y="624"/>
      <point x="405" y="566" type="curve" smooth="yes"/>
      <point x="451" y="550"/>
      <point x="500" y="535"/>
      <point x="545" y="519" type="curve" smooth="yes"/>
      <point x="665" y="478"/>
      <point x="756" y="431"/>
      <point x="756" y="310" type="curve" smooth="yes"/>
      <point x="756" y="152"/>
      <point x="618" y="121"/>
      <point x="508" y="121" type="curve" smooth="yes"/>
      <point x="402" y="121"/>
      <point x="275" y="174"/>
      <point x="184" y="237" type="curve"/>
      <point x="129" y="99" type="line"/>
      <point x="212" y="31"/>
      <point x="390" y="-20"/>
    </contour>
  </outline>
</glyph>
<glyph name="u" format="1">
  <advance width="1227"/>
  <unicode hex="0075"/>
  <outline>
    <contour>
      <point x="533" y="-20" type="curve"/>
      <point x="709" y="-18"/>
      <point x="844" y="86"/>
      <point x="914" y="171" type="curve"/>
      <point x="941" y="0" type="line"/>
      <point x="1082" y="0" type="line"/>
      <point x="1082" y="1169" type="line"/>
      <point x="892" y="1169" type="line"/>
      <point x="893" y="274" type="line"/>
      <point x="798" y="179"/>
      <point x="680" y="117"/>
      <point x="548" y="117" type="curve" smooth="yes"/>
      <point x="360" y="117"/>
      <point x="323" y="276"/>
      <point x="323" y="442" type="curve" smooth="yes"/>
      <point x="323" y="1169" type="line"/>
      <point x="133" y="1169" type="line"/>
      <point x="133" y="442" type="line" smooth="yes"/>
      <point x="133" y="165"/>
      <point x="251" y="-20"/>
    </contour>
  </outline>
</glyph>
<glyph name="v" format="1">
  <advance width="1128"/>
  <unicode hex="0076"/>
  <outline>
    <contour>
      <point x="473" y="0" type="line"/>
      <point x="654" y="0" type="line"/>
      <point x="1067" y="1169" type="line"/>
      <point x="882" y="1169" type="line"/>
      <point x="567" y="163" type="line"/>
      <point x="233" y="1169" type="line"/>
      <point x="50" y="1169" type="line"/>
    </contour>
  </outline>
</glyph>
<glyph name="w" format="1">
  <advance width="1592"/>
  <unicode hex="0077"/>
  <outline>
    <contour>
      <point x="330" y="0" type="line"/>
      <point x="526" y="0" type="line"/>
      <point x="789" y="1003" type="line"/>
      <point x="1055" y="0" type="line"/>
      <point x="1252" y="0" type="line"/>
      <point x="1566" y="1169" type="line"/>
      <point x="1387" y="1169" type="line"/>
      <point x="1159" y="152" type="line"/>
      <point x="890" y="1169" type="line"/>
      <point x="688" y="1169" type="line"/>
      <point x="431" y="154" type="line"/>
      <point x="183" y="1169" type="line"/>
      <point x="9" y="1169" type="line"/>
    </contour>
  </outline>
</glyph>
<glyph name="y" format="1">
  <advance width="1128"/>
  <unicode hex="0079"/>
  <outline>
    <contour>
      <point x="206" y="-439" type="line"/>
      <point x="483" y="-439"/>
      <point x="560" y="-259"/>
      <point x="640" y="-37" type="curve" smooth="yes"/>
      <point x="1077" y="1169" type="line"/>
      <point x="882" y="1169" type="line"/>
      <point x="581" y="220" type="line"/>
      <point x="226" y="1169" type="line"/>
      <point x="44" y="1169" type="line"/>
      <point x="495" y="23" type="line"/>
      <point x="433" y="-186"/>
      <point x="384" y="-290"/>
      <point x="159" y="-302" type="curve"/>
    </contour>
  </outline>
</glyph>
<glyph name="exclamdown" format="1">
  <advance width="730"></advance>
  <unicode hex="00A1"></unicode>
  <outline>
    <contour>
      <point x="288" y="0" type="line"></point>
      <point x="462" y="0" type="line"></point>
      <point x="462" y="1180" type="line"></point>
      <point x="288" y="1180" type="line"></point>
    </contour>
    <contour>
      <point x="238" y="1393" type="line"></point>
      <point x="447" y="1393" type="line"></point>
      <point x="447" y="1595" type="line"></point>
      <point x="238" y="1595" type="line"></point>
    </contour>
  </outline>
</glyph>
<glyph name="currency" format="1">
  <advance width="1194"></advance>
  <unicode hex="00A4"></unicode>
  <outline>
    <contour>
      <point x="168" y="430" type="line"></point>
      <point x="357" y="619" type="line"></point>
      <point x="422" y="578"></point>
      <point x="497" y="558"></point>
      <point x="573" y="558" type="curve" smooth="yes"></point>
      <point x="659" y="558"></point>
      <point x="742" y="584"></point>
      <point x="813" y="633" type="curve"></point>
      <point x="1016" y="430" type="line"></point>
      <point x="1140" y="555" type="line"></point>
      <point x="938" y="757" type="line"></point>
      <point x="987" y="829"></point>
      <point x="1014" y="913"></point>
      <point x="1014" y="1000" type="curve" smooth="yes"></point>
      <point x="1014" y="1076"></point>
      <point x="994" y="1150"></point>
      <point x="953" y="1215" type="curve"></point>
      <point x="1140" y="1402" type="line"></point>
      <point x="1016" y="1526" type="line"></point>
      <point x="830" y="1341" type="line"></point>
      <point x="763" y="1385"></point>
      <point x="685" y="1409"></point>
      <point x="605" y="1409" type="curve" smooth="yes"></point>
      <point x="518" y="1409"></point>
      <point x="434" y="1382"></point>
      <point x="362" y="1333" type="curve"></point>
      <point x="168" y="1526" type="line"></point>
      <point x="44" y="1402" type="line"></point>
      <point x="238" y="1208" type="line"></point>
      <point x="190" y="1137"></point>
      <point x="163" y="1053"></point>
      <point x="163" y="967" type="curve" smooth="yes"></point>
      <point x="163" y="887"></point>
      <point x="187" y="809"></point>
      <point x="231" y="742" type="curve"></point>
      <point x="44" y="555" type="line"></point>
    </contour>
    <contour>
      <point x="580" y="699" type="curve" smooth="yes"></point>
      <point x="434" y="699"></point>
      <point x="306" y="829"></point>
      <point x="306" y="975" type="curve" smooth="yes"></point>
      <point x="306" y="1130"></point>
      <point x="444" y="1266"></point>
      <point x="598" y="1266" type="curve" smooth="yes"></point>
      <point x="744" y="1266"></point>
      <point x="872" y="1138"></point>
      <point x="872" y="992" type="curve" smooth="yes"></point>
      <point x="872" y="840"></point>
      <point x="732" y="699"></point>
    </contour>
  </outline>
</glyph>
<glyph name="brokenbar" format="1">
  <advance width="730"></advance>
  <unicode hex="00A6"></unicode>
  <outline>
    <contour>
      <point x="265" y="0" type="line"></point>
      <point x="453" y="0" type="line"></point>
      <point x="453" y="690" type="line"></point>
      <point x="265" y="690" type="line"></point>
    </contour>
    <contour>
      <point x="265" y="889" type="line"></point>
      <point x="453" y="889" type="line"></point>
      <point x="453" y="1579" type="line"></point>
      <point x="265" y="1579" type="line"></point>
    </contour>
  </outline>
</glyph>
<glyph name="section" format="1">
  <advance width="1128"></advance>
  <unicode hex="00A7"></unicode>
  <outline>
    <contour>
      <point x="536" y="-96" type="curve" smooth="yes"></point>
      <point x="737" y="-96"></point>
      <point x="952" y="-16"></point>
      <point x="952" y="219" type="curve" smooth="yes"></point>
      <point x="952" y="386"></point>
      <point x="852" y="470"></point>
      <point x="701" y="522" type="curve"></point>
      <point x="824" y="531"></point>
      <point x="950" y="610"></point>
      <point x="950" y="746" type="curve" smooth="yes"></point>
      <point x="950" y="948.5"></point>
      <point x="792" y="1027.5"></point>
      <point x="634" y="1082.5" type="curve" smooth="yes"></point>
      <point x="611" y="1090.47940329"></point>
      <point x="588" y="1097.9536492"></point>
      <point x="565" y="1105.22657867" type="curve" smooth="yes"></point>
      <point x="433" y="1148.0841046"></point>
      <point x="318" y="1183.95102637"></point>
      <point x="318" y="1275" type="curve" smooth="yes"></point>
      <point x="318" y="1402"></point>
      <point x="448" y="1424"></point>
      <point x="549" y="1424" type="curve" smooth="yes"></point>
      <point x="656" y="1424"></point>
      <point x="759" y="1381"></point>
      <point x="843" y="1316" type="curve"></point>
      <point x="901" y="1452" type="line"></point>
      <point x="828" y="1516"></point>
      <point x="635" y="1569"></point>
      <point x="539" y="1569" type="curve" smooth="yes"></point>
      <point x="366" y="1569"></point>
      <point x="162" y="1487"></point>
      <point x="162" y="1285" type="curve" smooth="yes"></point>
      <point x="162" y="1115"></point>
      <point x="270" y="1051"></point>
      <point x="417" y="995" type="curve"></point>
      <point x="293" y="980"></point>
      <point x="162" y="913"></point>
      <point x="162" y="771" type="curve" smooth="yes"></point>
      <point x="162" y="560.0"></point>
      <point x="317" y="495.5"></point>
      <point x="472" y="447.5" type="curve" smooth="yes"></point>
      <point x="498" y="439.559142828"></point>
      <point x="523" y="432.069867257"></point>
      <point x="548" y="424.443571204" type="curve" smooth="yes"></point>
      <point x="674" y="385.97129092"></point>
      <point x="783" y="344.01199396"></point>
      <point x="783" y="223" type="curve" smooth="yes"></point>
      <point x="783" y="82"></point>
      <point x="638" y="50"></point>
      <point x="524" y="50" type="curve" smooth="yes"></point>
      <point x="427" y="50"></point>
      <point x="306" y="93"></point>
      <point x="233" y="158" type="curve"></point>
      <point x="172" y="20" type="line"></point>
      <point x="251" y="-45"></point>
      <point x="435" y="-96"></point>
    </contour>
    <contour>
      <point x="551" y="600" type="curve" smooth="yes"></point>
      <point x="447" y="600"></point>
      <point x="316" y="623"></point>
      <point x="316" y="753" type="curve" smooth="yes"></point>
      <point x="316" y="886"></point>
      <point x="444" y="906"></point>
      <point x="551" y="906" type="curve" smooth="yes"></point>
      <point x="659" y="906"></point>
      <point x="790" y="889"></point>
      <point x="790" y="751" type="curve" smooth="yes"></point>
      <point x="790" y="624"></point>
      <point x="651" y="600"></point>
    </contour>
  </outline>
</glyph>
<glyph name="copyright" format="1">
  <advance width="1991"></advance>
  <unicode hex="00A9"></unicode>
  <outline>
    <contour>
      <point x="978" y="336" type="curve" smooth="yes"></point>
      <point x="1076" y="336"></point>
      <point x="1172" y="370"></point>
      <point x="1258" y="414" type="curve"></point>
      <point x="1258" y="540" type="line"></point>
      <point x="1167" y="494"></point>
      <point x="1067" y="464"></point>
      <point x="964" y="464" type="curve" smooth="yes"></point>
      <point x="704" y="464"></point>
      <point x="618" y="575"></point>
      <point x="618" y="831" type="curve" smooth="yes"></point>
      <point x="618" y="1087"></point>
      <point x="704" y="1198"></point>
      <point x="964" y="1198" type="curve" smooth="yes"></point>
      <point x="1067" y="1198"></point>
      <point x="1167" y="1168"></point>
      <point x="1258" y="1122" type="curve"></point>
      <point x="1258" y="1248" type="line"></point>
      <point x="1172" y="1292"></point>
      <point x="1076" y="1326"></point>
      <point x="978" y="1326" type="curve" smooth="yes"></point>
      <point x="645" y="1326"></point>
      <point x="456" y="1168"></point>
      <point x="456" y="831" type="curve" smooth="yes"></point>
      <point x="456" y="494"></point>
      <point x="645" y="336"></point>
    </contour>
    <contour>
      <point x="941" y="-23" type="curve" smooth="yes"></point>
      <point x="1420" y="-23"></point>
      <point x="1816" y="344"></point>
      <point x="1816" y="830" type="curve" smooth="yes"></point>
      <point x="1816" y="1308"></point>
      <point x="1414" y="1687"></point>
      <point x="941" y="1687" type="curve" smooth="yes"></point>
      <point x="468" y="1687"></point>
      <point x="66" y="1308"></point>
      <point x="66" y="830" type="curve" smooth="yes"></point>
      <point x="66" y="342"></point>
      <point x="460" y="-23"></point>
    </contour>
    <contour>
      <point x="941" y="101" type="curve" smooth="yes"></point>
      <point x="522" y="101"></point>
      <point x="214" y="410"></point>
      <point x="214" y="829" type="curve" smooth="yes"></point>
      <point x="214" y="1230"></point>
      <point x="538" y="1562"></point>
      <point x="941" y="1562" type="curve" smooth="yes"></point>
      <point x="1343" y="1562"></point>
      <point x="1668" y="1229"></point>
      <point x="1668" y="829" type="curve" smooth="yes"></point>
      <point x="1668" y="410"></point>
      <point x="1360" y="101"></point>
    </contour>
  </outline>
</glyph>
<glyph name="ordfeminine" format="1">
  <advance width="1028"></advance>
  <unicode hex="00AA"></unicode>
  <outline>
    <contour>
      <point x="443" y="668" type="curve" smooth="yes"></point>
      <point x="553" y="668"></point>
      <point x="689" y="720"></point>
      <point x="737" y="828" type="curve"></point>
      <point x="764" y="686" type="line"></point>
      <point x="880" y="686" type="line"></point>
      <point x="880" y="1235" type="line" smooth="yes"></point>
      <point x="880" y="1506"></point>
      <point x="807" y="1638"></point>
      <point x="519" y="1638" type="curve" smooth="yes"></point>
      <point x="412" y="1638"></point>
      <point x="277" y="1607"></point>
      <point x="183" y="1552" type="curve"></point>
      <point x="236" y="1443" type="line"></point>
      <point x="319" y="1488"></point>
      <point x="434" y="1513"></point>
      <point x="527" y="1513" type="curve" smooth="yes"></point>
      <point x="697" y="1513"></point>
      <point x="719" y="1426"></point>
      <point x="719" y="1276" type="curve" smooth="yes"></point>
      <point x="719" y="1218" type="line"></point>
      <point x="645" y="1243"></point>
      <point x="563" y="1258"></point>
      <point x="485" y="1258" type="curve" smooth="yes"></point>
      <point x="296" y="1258"></point>
      <point x="126" y="1169"></point>
      <point x="126" y="960" type="curve" smooth="yes"></point>
      <point x="126" y="766"></point>
      <point x="257" y="668"></point>
    </contour>
    <contour>
      <point x="481" y="781" type="curve" smooth="yes"></point>
      <point x="339" y="781"></point>
      <point x="287" y="828"></point>
      <point x="287" y="971" type="curve" smooth="yes"></point>
      <point x="287" y="1123"></point>
      <point x="415" y="1158"></point>
      <point x="543" y="1158" type="curve" smooth="yes"></point>
      <point x="602" y="1158"></point>
      <point x="661" y="1150"></point>
      <point x="719" y="1141" type="curve"></point>
      <point x="719" y="903" type="line"></point>
      <point x="667" y="831"></point>
      <point x="569" y="781"></point>
    </contour>
    <contour>
      <point x="190" y="446" type="line"></point>
      <point x="874" y="446" type="line"></point>
      <point x="874" y="575" type="line"></point>
      <point x="190" y="575" type="line"></point>
    </contour>
  </outline>
</glyph>
<glyph name="guillemotleft" format="1">
  <advance width="1327"></advance>
  <unicode hex="00AB"></unicode>
  <outline>
    <contour>
      <point x="645" y="99" type="line"></point>
      <point x="645" y="306" type="line"></point>
      <point x="209" y="577" type="line"></point>
      <point x="645" y="842" type="line"></point>
      <point x="645" y="1049" type="line"></point>
      <point x="37" y="666" type="line"></point>
      <point x="37" y="481" type="line"></point>
    </contour>
    <contour>
      <point x="1253" y="99" type="line"></point>
      <point x="1253" y="306" type="line"></point>
      <point x="816" y="577" type="line"></point>
      <point x="1253" y="842" type="line"></point>
      <point x="1253" y="1049" type="line"></point>
      <point x="645" y="666" type="line"></point>
      <point x="645" y="481" type="line"></point>
    </contour>
  </outline>
</glyph>
<glyph name="logicalnot" format="1">
  <advance width="1559"></advance>
  <unicode hex="00AC"></unicode>
  <outline>
    <contour>
      <point x="1222" y="338" type="line"></point>
      <point x="1398" y="338" type="line"></point>
      <point x="1398" y="1174" type="line"></point>
      <point x="44" y="1174" type="line"></point>
      <point x="44" y="1023" type="line"></point>
      <point x="1222" y="1023" type="line"></point>
    </contour>
  </outline>
</glyph>
<glyph name="acute" format="1">
  <advance width="763"></advance>
  <unicode hex="00B4"></unicode>
  <outline>
    <contour>
      <point x="211" y="328" type="line"></point>
      <point x="625" y="759" type="line"></point>
      <point x="464" y="860" type="line"></point>
      <point x="154" y="354" type="line"></point>
    </contour>
  </outline>
</glyph>
<glyph name="paragraph" format="1">
  <advance width="1327"></advance>
  <unicode hex="00B6"></unicode>
  <outline>
    <contour>
      <point x="596" y="0" type="line"></point>
      <point x="786" y="0" type="line"></point>
      <point x="786" y="1428" type="line"></point>
      <point x="921" y="1428" type="line"></point>
      <point x="921" y="0" type="line"></point>
      <point x="1107" y="0" type="line"></point>
      <point x="1107" y="1578" type="line"></point>
      <point x="641" y="1578" type="line" smooth="yes"></point>
      <point x="408" y="1578"></point>
      <point x="107" y="1551"></point>
      <point x="107" y="1250" type="curve" smooth="yes"></point>
      <point x="107" y="971"></point>
      <point x="366" y="905"></point>
      <point x="596" y="905" type="curve"></point>
    </contour>
  </outline>
</glyph>
<glyph name="cedilla" format="1">
  <advance width="696"></advance>
  <unicode hex="00B8"></unicode>
  <outline>
    <contour>
      <point x="338" y="-578" type="curve" smooth="yes"></point>
      <point x="496" y="-578"></point>
      <point x="590" y="-506"></point>
      <point x="590" y="-342" type="curve" smooth="yes"></point>
      <point x="590" y="-166"></point>
      <point x="492" y="-98"></point>
      <point x="325" y="-98" type="curve"></point>
      <point x="325" y="76" type="line"></point>
      <point x="204" y="76" type="line"></point>
      <point x="204" y="-186" type="line"></point>
      <point x="309" y="-186"></point>
      <point x="457" y="-189"></point>
      <point x="457" y="-328" type="curve" smooth="yes"></point>
      <point x="457" y="-437"></point>
      <point x="420" y="-464"></point>
      <point x="318" y="-464" type="curve" smooth="yes"></point>
      <point x="279" y="-464"></point>
      <point x="194" y="-437"></point>
      <point x="154" y="-423" type="curve"></point>
      <point x="154" y="-540" type="line"></point>
      <point x="213" y="-560"></point>
      <point x="275" y="-578"></point>
    </contour>
  </outline>
</glyph>
<glyph name="ordmasculine" format="1">
  <advance width="1061"></advance>
  <unicode hex="00BA"></unicode>
  <outline>
    <contour>
      <point x="198" y="446" type="line"></point>
      <point x="882" y="446" type="line"></point>
      <point x="882" y="575" type="line"></point>
      <point x="198" y="575" type="line"></point>
    </contour>
    <contour>
      <point x="536" y="797" type="curve" smooth="yes"></point>
      <point x="328" y="797"></point>
      <point x="269" y="977"></point>
      <point x="269" y="1154" type="curve" smooth="yes"></point>
      <point x="269" y="1331"></point>
      <point x="328" y="1512"></point>
      <point x="536" y="1512" type="curve" smooth="yes"></point>
      <point x="743" y="1512"></point>
      <point x="803" y="1330"></point>
      <point x="803" y="1154" type="curve" smooth="yes"></point>
      <point x="803" y="976"></point>
      <point x="745" y="797"></point>
    </contour>
    <contour>
      <point x="536" y="670" type="curve" smooth="yes"></point>
      <point x="824" y="670"></point>
      <point x="961" y="885"></point>
      <point x="961" y="1152" type="curve" smooth="yes"></point>
      <point x="961" y="1417"></point>
      <point x="823" y="1638"></point>
      <point x="536" y="1638" type="curve" smooth="yes"></point>
      <point x="250" y="1638"></point>
      <point x="112" y="1417"></point>
      <point x="112" y="1152" type="curve" smooth="yes"></point>
      <point x="112" y="886"></point>
      <point x="249" y="670"></point>
    </contour>
  </outline>
</glyph>
<glyph name="onehalf" format="1">
  <advance width="1758"></advance>
  <unicode hex="00BD"></unicode>
  <outline>
    <contour>
      <point x="1004" y="-172" type="line"></point>
      <point x="1642" y="-172" type="line"></point>
      <point x="1642" y="-20" type="line"></point>
      <point x="1236" y="-20" type="line"></point>
      <point x="1387" y="108"></point>
      <point x="1670" y="289"></point>
      <point x="1670" y="517" type="curve" smooth="yes"></point>
      <point x="1670" y="711"></point>
      <point x="1502" y="798"></point>
      <point x="1327" y="798" type="curve" smooth="yes"></point>
      <point x="1224" y="798"></point>
      <point x="1118" y="785"></point>
      <point x="1021" y="748" type="curve"></point>
      <point x="1021" y="603" type="line"></point>
      <point x="1113" y="628"></point>
      <point x="1213" y="655"></point>
      <point x="1309" y="655" type="curve" smooth="yes"></point>
      <point x="1399" y="655"></point>
      <point x="1498" y="620"></point>
      <point x="1498" y="514" type="curve" smooth="yes"></point>
      <point x="1498" y="337"></point>
      <point x="1104" y="54"></point>
      <point x="1004" y="-35" type="curve"></point>
    </contour>
    <contour>
      <point x="202" y="568" type="line"></point>
      <point x="362" y="568" type="line"></point>
      <point x="362" y="1503" type="line"></point>
      <point x="232" y="1529" type="line"></point>
      <point x="-2" y="1434" type="line"></point>
      <point x="33" y="1341" type="line"></point>
      <point x="202" y="1413" type="line"></point>
    </contour>
    <contour>
      <point x="184" y="-123" type="line"></point>
      <point x="1225" y="1272" type="line"></point>
      <point x="1103" y="1365" type="line"></point>
      <point x="64" y="-30" type="line"></point>
    </contour>
  </outline>
</glyph>
<glyph name="questiondown" format="1">
  <advance width="1128"></advance>
  <unicode hex="00BF"></unicode>
  <outline>
    <contour>
      <point x="638" y="-114" type="curve" smooth="yes"></point>
      <point x="764" y="-114"></point>
      <point x="934" y="-77"></point>
      <point x="1044" y="-10" type="curve"></point>
      <point x="985" y="133" type="line"></point>
      <point x="896" y="77"></point>
      <point x="760" y="47"></point>
      <point x="657" y="47" type="curve" smooth="yes"></point>
      <point x="492" y="47"></point>
      <point x="346" y="71"></point>
      <point x="346" y="268" type="curve" smooth="yes"></point>
      <point x="346" y="518"></point>
      <point x="679" y="622"></point>
      <point x="869" y="688" type="curve"></point>
      <point x="869" y="1173" type="line"></point>
      <point x="689" y="1173" type="line"></point>
      <point x="689" y="790" type="line"></point>
      <point x="427" y="697"></point>
      <point x="155" y="573"></point>
      <point x="155" y="249" type="curve" smooth="yes"></point>
      <point x="155" y="-34"></point>
      <point x="397" y="-114"></point>
    </contour>
    <contour>
      <point x="784" y="1296" type="curve" smooth="yes"></point>
      <point x="838" y="1296"></point>
      <point x="892" y="1338"></point>
      <point x="892" y="1395" type="curve" smooth="yes"></point>
      <point x="892" y="1453"></point>
      <point x="848" y="1505"></point>
      <point x="788" y="1505" type="curve" smooth="yes"></point>
      <point x="731" y="1505"></point>
      <point x="683" y="1458"></point>
      <point x="683" y="1401" type="curve" smooth="yes"></point>
      <point x="683" y="1346"></point>
      <point x="728" y="1296"></point>
    </contour>
  </outline>
</glyph>
<glyph name="multiply" format="1">
  <advance width="1028"></advance>
  <unicode hex="00D7"></unicode>
  <outline>
    <contour>
      <point x="194" y="127" type="line"></point>
      <point x="511" y="444" type="line"></point>
      <point x="828" y="127" type="line"></point>
      <point x="930" y="229" type="line"></point>
      <point x="613" y="546" type="line"></point>
      <point x="930" y="863" type="line"></point>
      <point x="828" y="965" type="line"></point>
      <point x="511" y="648" type="line"></point>
      <point x="194" y="965" type="line"></point>
      <point x="92" y="863" type="line"></point>
      <point x="409" y="546" type="line"></point>
      <point x="92" y="229" type="line"></point>
    </contour>
  </outline>
</glyph>
<glyph name="germandbls" format="1">
  <advance width="1360"></advance>
  <unicode hex="00DF"></unicode>
  <outline>
    <contour>
      <point x="518" y="-129" type="line"></point>
      <point x="868" y="-129"></point>
      <point x="1292" y="-37"></point>
      <point x="1292" y="395" type="curve" smooth="yes"></point>
      <point x="1292" y="661"></point>
      <point x="1137" y="844"></point>
      <point x="864" y="844" type="curve"></point>
      <point x="1039" y="864"></point>
      <point x="1110" y="1015"></point>
      <point x="1110" y="1176" type="curve" smooth="yes"></point>
      <point x="1110" y="1484"></point>
      <point x="893" y="1579"></point>
      <point x="617" y="1579" type="curve" smooth="yes"></point>
      <point x="258" y="1579"></point>
      <point x="147" y="1381"></point>
      <point x="147" y="1046" type="curve" smooth="yes"></point>
      <point x="148" y="-6" type="line"></point>
      <point x="342" y="16" type="line"></point>
      <point x="342" y="1018" type="line" smooth="yes"></point>
      <point x="342" y="1240"></point>
      <point x="343" y="1436"></point>
      <point x="617" y="1436" type="curve" smooth="yes"></point>
      <point x="785" y="1436"></point>
      <point x="938" y="1399"></point>
      <point x="938" y="1200" type="curve" smooth="yes"></point>
      <point x="938" y="932.027344137"></point>
      <point x="751" y="897.578156185"></point>
      <point x="530" y="903.348274291" type="curve" smooth="yes"></point>
      <point x="516" y="903.736447869"></point>
      <point x="501" y="904.30664061"></point>
      <point x="486" y="905" type="curve"></point>
      <point x="486" y="774" type="line"></point>
      <point x="727" y="774"></point>
      <point x="1110" y="759"></point>
      <point x="1110" y="432" type="curve" smooth="yes"></point>
      <point x="1110" y="62"></point>
      <point x="834" y="27"></point>
      <point x="518" y="27" type="curve"></point>
    </contour>
  </outline>
</glyph>
<glyph name="ae" format="1">
  <advance width="1758"></advance>
  <unicode hex="00E6"></unicode>
  <outline>
    <contour>
      <point x="422" y="-23" type="curve" smooth="yes"></point>
      <point x="596" y="-23"></point>
      <point x="765" y="68"></point>
      <point x="869" y="207" type="curve"></point>
      <point x="961" y="45"></point>
      <point x="1121" y="-23"></point>
      <point x="1302" y="-23" type="curve" smooth="yes"></point>
      <point x="1419" y="-23"></point>
      <point x="1588" y="30"></point>
      <point x="1682" y="99" type="curve"></point>
      <point x="1620" y="244" type="line"></point>
      <point x="1534" y="170"></point>
      <point x="1428" y="127"></point>
      <point x="1314" y="127" type="curve" smooth="yes"></point>
      <point x="1033" y="127"></point>
      <point x="968" y="322"></point>
      <point x="968" y="567" type="curve"></point>
      <point x="1728" y="567" type="line"></point>
      <point x="1733" y="603"></point>
      <point x="1736" y="640"></point>
      <point x="1736" y="676" type="curve" smooth="yes"></point>
      <point x="1736" y="958"></point>
      <point x="1600" y="1190"></point>
      <point x="1293" y="1190" type="curve" smooth="yes"></point>
      <point x="1132" y="1190"></point>
      <point x="971" y="1121"></point>
      <point x="898" y="970" type="curve"></point>
      <point x="843" y="1154"></point>
      <point x="689" y="1190"></point>
      <point x="516" y="1190" type="curve" smooth="yes"></point>
      <point x="397" y="1190"></point>
      <point x="188" y="1135"></point>
      <point x="96" y="1057" type="curve"></point>
      <point x="163" y="935" type="line"></point>
      <point x="253" y="1001"></point>
      <point x="416" y="1047"></point>
      <point x="526" y="1047" type="curve" smooth="yes"></point>
      <point x="767" y="1047"></point>
      <point x="778" y="924"></point>
      <point x="778" y="713" type="curve" smooth="yes"></point>
      <point x="778" y="665" type="line"></point>
      <point x="698" y="698"></point>
      <point x="560" y="715"></point>
      <point x="474" y="715" type="curve" smooth="yes"></point>
      <point x="238" y="715"></point>
      <point x="30" y="603"></point>
      <point x="30" y="343" type="curve" smooth="yes"></point>
      <point x="30" y="95"></point>
      <point x="183" y="-23"></point>
    </contour>
    <contour>
      <point x="469" y="119" type="curve" smooth="yes"></point>
      <point x="301" y="119"></point>
      <point x="221" y="183"></point>
      <point x="221" y="356" type="curve" smooth="yes"></point>
      <point x="221" y="556"></point>
      <point x="371" y="590"></point>
      <point x="543" y="590" type="curve" smooth="yes"></point>
      <point x="622" y="590"></point>
      <point x="700" y="582"></point>
      <point x="778" y="569" type="curve"></point>
      <point x="778" y="271" type="line"></point>
      <point x="694" y="193"></point>
      <point x="588" y="119"></point>
    </contour>
    <contour>
      <point x="968" y="682" type="line"></point>
      <point x="968" y="685.012138456"></point>
      <point x="968" y="688.013776697"></point>
      <point x="968" y="691.004613557" type="curve" smooth="yes"></point>
      <point x="970" y="900.500386219"></point>
      <point x="1070" y="1057.0"></point>
      <point x="1294" y="1057" type="curve" smooth="yes"></point>
      <point x="1498" y="1057"></point>
      <point x="1568" y="902"></point>
      <point x="1568" y="717" type="curve" smooth="yes"></point>
      <point x="1568" y="682" type="line"></point>
    </contour>
  </outline>
</glyph>
<glyph name="eth" format="1">
  <advance width="1227"></advance>
  <unicode hex="00F0"></unicode>
  <outline>
    <contour>
      <point x="583" y="-20" type="curve" smooth="yes"></point>
      <point x="1009" y="-20"></point>
      <point x="1116" y="324"></point>
      <point x="1116" y="690" type="curve" smooth="yes"></point>
      <point x="1116" y="973"></point>
      <point x="1036" y="1200"></point>
      <point x="870" y="1426" type="curve"></point>
      <point x="1130" y="1503" type="line"></point>
      <point x="1088" y="1593" type="line"></point>
      <point x="802" y="1508" type="line"></point>
      <point x="709" y="1599"></point>
      <point x="621" y="1679"></point>
      <point x="506" y="1743" type="curve"></point>
      <point x="422" y="1641" type="line"></point>
      <point x="503" y="1590"></point>
      <point x="576" y="1528"></point>
      <point x="643" y="1461" type="curve"></point>
      <point x="440" y="1401" type="line"></point>
      <point x="482" y="1311" type="line"></point>
      <point x="717" y="1380" type="line"></point>
      <point x="806" y="1277"></point>
      <point x="883" y="1158"></point>
      <point x="926" y="1028" type="curve"></point>
      <point x="845" y="1129"></point>
      <point x="687" y="1190"></point>
      <point x="561" y="1190" type="curve" smooth="yes"></point>
      <point x="229" y="1190"></point>
      <point x="99" y="870"></point>
      <point x="99" y="584" type="curve" smooth="yes"></point>
      <point x="99" y="275"></point>
      <point x="233" y="-20"></point>
    </contour>
    <contour>
      <point x="579" y="123" type="curve" smooth="yes"></point>
      <point x="323" y="123"></point>
      <point x="281" y="384"></point>
      <point x="281" y="587" type="curve" smooth="yes"></point>
      <point x="281" y="822"></point>
      <point x="330" y="1047"></point>
      <point x="605" y="1047" type="curve" smooth="yes"></point>
      <point x="824" y="1047"></point>
      <point x="932" y="869"></point>
      <point x="932" y="666" type="curve" smooth="yes"></point>
      <point x="932" y="412"></point>
      <point x="894" y="123"></point>
    </contour>
  </outline>
</glyph>
<glyph name="divide" format="1">
  <advance width="995"></advance>
  <unicode hex="00F7"></unicode>
  <outline>
    <contour>
      <point x="484" y="215" type="curve" smooth="yes"></point>
      <point x="549" y="215"></point>
      <point x="592" y="268"></point>
      <point x="592" y="330" type="curve" smooth="yes"></point>
      <point x="592" y="392"></point>
      <point x="549" y="445"></point>
      <point x="484" y="445" type="curve" smooth="yes"></point>
      <point x="421" y="445"></point>
      <point x="372" y="392"></point>
      <point x="372" y="330" type="curve" smooth="yes"></point>
      <point x="372" y="267"></point>
      <point x="420" y="215"></point>
    </contour>
    <contour>
      <point x="147" y="508" type="line"></point>
      <point x="829" y="508" type="line"></point>
      <point x="829" y="639" type="line"></point>
      <point x="147" y="639" type="line"></point>
    </contour>
    <contour>
      <point x="486" y="700" type="curve" smooth="yes"></point>
      <point x="551" y="700"></point>
      <point x="594" y="753"></point>
      <point x="594" y="815" type="curve" smooth="yes"></point>
      <point x="594" y="877"></point>
      <point x="551" y="930"></point>
      <point x="486" y="930" type="curve" smooth="yes"></point>
      <point x="423" y="930"></point>
      <point x="374" y="877"></point>
      <point x="374" y="815" type="curve" smooth="yes"></point>
      <point x="374" y="752"></point>
      <point x="422" y="700"></point>
    </contour>
  </outline>
</glyph>
<glyph name="thorn" format="1">
  <advance width="1261"></advance>
  <unicode hex="00FE"></unicode>
  <outline>
    <contour>
      <point x="133" y="-487" type="line"></point>
      <point x="319" y="-465" type="line"></point>
      <point x="319" y="117" type="line"></point>
      <point x="405" y="10"></point>
      <point x="547" y="-20"></point>
      <point x="678" y="-20" type="curve" smooth="yes"></point>
      <point x="1015" y="-20"></point>
      <point x="1147" y="291"></point>
      <point x="1147" y="584" type="curve" smooth="yes"></point>
      <point x="1147" y="880"></point>
      <point x="1019" y="1190"></point>
      <point x="678" y="1190" type="curve" smooth="yes"></point>
      <point x="537" y="1190"></point>
      <point x="403" y="1113"></point>
      <point x="317" y="1004" type="curve"></point>
      <point x="317" y="1565" type="line"></point>
      <point x="133" y="1565" type="line"></point>
    </contour>
    <contour>
      <point x="686" y="123" type="curve" smooth="yes"></point>
      <point x="567" y="123"></point>
      <point x="418" y="165"></point>
      <point x="326" y="244" type="curve"></point>
      <point x="342" y="890" type="line"></point>
      <point x="428" y="976"></point>
      <point x="555" y="1047"></point>
      <point x="678" y="1047" type="curve" smooth="yes"></point>
      <point x="934" y="1047"></point>
      <point x="965" y="735"></point>
      <point x="965" y="543" type="curve" smooth="yes"></point>
      <point x="965" y="366"></point>
      <point x="903" y="123"></point>
    </contour>
  </outline>
</glyph>
<glyph name="dcroat" format="1">
  <advance width="1261"></advance>
  <unicode hex="0111"></unicode>
  <outline>
    <contour>
      <point x="576" y="-20" type="curve" smooth="yes"></point>
      <point x="716" y="-20"></point>
      <point x="857" y="71"></point>
      <point x="940" y="179" type="curve"></point>
      <point x="968" y="0" type="line"></point>
      <point x="1109" y="0" type="line"></point>
      <point x="1109" y="1317" type="line"></point>
      <point x="1232" y="1317" type="line"></point>
      <point x="1232" y="1434" type="line"></point>
      <point x="1109" y="1434" type="line"></point>
      <point x="1109" y="1579" type="line"></point>
      <point x="919" y="1614" type="line"></point>
      <point x="919" y="1434" type="line"></point>
      <point x="550" y="1434" type="line"></point>
      <point x="550" y="1317" type="line"></point>
      <point x="919" y="1317" type="line"></point>
      <point x="919" y="1028" type="line"></point>
      <point x="838" y="1129"></point>
      <point x="681" y="1190"></point>
      <point x="554" y="1190" type="curve" smooth="yes"></point>
      <point x="222" y="1190"></point>
      <point x="92" y="870"></point>
      <point x="92" y="584" type="curve" smooth="yes"></point>
      <point x="92" y="275"></point>
      <point x="226" y="-20"></point>
    </contour>
    <contour>
      <point x="572" y="117" type="curve" smooth="yes"></point>
      <point x="316" y="117"></point>
      <point x="274" y="381"></point>
      <point x="274" y="587" type="curve" smooth="yes"></point>
      <point x="274" y="787"></point>
      <point x="316" y="1047"></point>
      <point x="566" y="1047" type="curve" smooth="yes"></point>
      <point x="696" y="1047"></point>
      <point x="818" y="980"></point>
      <point x="919" y="903" type="curve"></point>
      <point x="919" y="275" type="line"></point>
      <point x="836" y="181"></point>
      <point x="694" y="117"></point>
    </contour>
  </outline>
</glyph>
<glyph name="gcedilla" format="1">
  <advance width="1161"></advance>
  <unicode hex="0123"></unicode>
  <outline>
    <contour>
      <point x="581" y="-427" type="curve" smooth="yes"></point>
      <point x="788" y="-427"></point>
      <point x="1105" y="-372"></point>
      <point x="1105" y="-106" type="curve" smooth="yes"></point>
      <point x="1105" y="293"></point>
      <point x="536" y="210"></point>
      <point x="278" y="210" type="curve"></point>
      <point x="267" y="246"></point>
      <point x="257" y="284"></point>
      <point x="257" y="322" type="curve" smooth="yes"></point>
      <point x="257" y="511"></point>
      <point x="978" y="296"></point>
      <point x="978" y="812" type="curve" smooth="yes"></point>
      <point x="978" y="888"></point>
      <point x="968" y="983"></point>
      <point x="895" y="1026" type="curve"></point>
      <point x="1133" y="1026" type="line"></point>
      <point x="1133" y="1171" type="line"></point>
      <point x="1024" y="1170"></point>
      <point x="927" y="1165"></point>
      <point x="828" y="1114" type="curve"></point>
      <point x="749" y="1175"></point>
      <point x="645" y="1190"></point>
      <point x="548" y="1190" type="curve" smooth="yes"></point>
      <point x="345" y="1190"></point>
      <point x="107" y="1089"></point>
      <point x="107" y="854" type="curve" smooth="yes"></point>
      <point x="107" y="718"></point>
      <point x="175" y="578"></point>
      <point x="304" y="521" type="curve"></point>
      <point x="204" y="506"></point>
      <point x="118" y="424"></point>
      <point x="118" y="320" type="curve" smooth="yes"></point>
      <point x="118" y="235"></point>
      <point x="168" y="154"></point>
      <point x="237" y="107" type="curve"></point>
      <point x="138" y="62"></point>
      <point x="71" y="-12"></point>
      <point x="71" y="-125" type="curve" smooth="yes"></point>
      <point x="71" y="-407"></point>
      <point x="367" y="-427"></point>
    </contour>
    <contour>
      <point x="561" y="-277" type="curve" smooth="yes"></point>
      <point x="436" y="-277"></point>
      <point x="229" y="-285"></point>
      <point x="229" y="-110" type="curve" smooth="yes"></point>
      <point x="229" y="-37"></point>
      <point x="263" y="37"></point>
      <point x="326" y="76" type="curve"></point>
      <point x="648" y="76" type="line" smooth="yes"></point>
      <point x="785" y="76"></point>
      <point x="943" y="65"></point>
      <point x="943" y="-111" type="curve" smooth="yes"></point>
      <point x="943" y="-285"></point>
      <point x="680" y="-277"></point>
    </contour>
    <contour>
      <point x="451" y="552" type="curve"></point>
      <point x="342" y="599"></point>
      <point x="268" y="729"></point>
      <point x="268" y="845" type="curve" smooth="yes"></point>
      <point x="268" y="1009"></point>
      <point x="403" y="1058"></point>
      <point x="544" y="1058" type="curve" smooth="yes"></point>
      <point x="687" y="1058"></point>
      <point x="811" y="1031"></point>
      <point x="811" y="860" type="curve" smooth="yes"></point>
      <point x="811" y="593"></point>
      <point x="674" y="580"></point>
    </contour>
  </outline>
</glyph>
<glyph name="hbar" format="1">
  <advance width="1294"></advance>
  <unicode hex="0127"></unicode>
  <outline>
    <contour>
      <point x="153" y="0" type="line"></point>
      <point x="343" y="0" type="line"></point>
      <point x="343" y="888" type="line"></point>
      <point x="429" y="979"></point>
      <point x="594" y="1047"></point>
      <point x="718" y="1047" type="curve" smooth="yes"></point>
      <point x="912" y="1047"></point>
      <point x="950" y="892"></point>
      <point x="950" y="727" type="curve" smooth="yes"></point>
      <point x="950" y="0" type="line"></point>
      <point x="1140" y="0" type="line"></point>
      <point x="1140" y="727" type="line" smooth="yes"></point>
      <point x="1140" y="1018"></point>
      <point x="1025" y="1190"></point>
      <point x="732" y="1190" type="curve" smooth="yes"></point>
      <point x="569" y="1190"></point>
      <point x="449" y="1108"></point>
      <point x="343" y="1011" type="curve"></point>
      <point x="343" y="1357" type="line"></point>
      <point x="712" y="1357" type="line"></point>
      <point x="712" y="1474" type="line"></point>
      <point x="343" y="1474" type="line"></point>
      <point x="343" y="1616" type="line"></point>
      <point x="153" y="1579" type="line"></point>
      <point x="153" y="1474" type="line"></point>
      <point x="30" y="1474" type="line"></point>
      <point x="30" y="1357" type="line"></point>
      <point x="153" y="1357" type="line"></point>
    </contour>
  </outline>
</glyph>
<glyph name="IJ" format="1">
  <advance width="1460"></advance>
  <unicode hex="0132"></unicode>
  <outline>
    <contour>
      <point x="11" y="0" type="line"></point>
      <point x="602" y="0" type="line"></point>
      <point x="602" y="112" type="line"></point>
      <point x="396" y="112" type="line"></point>
      <point x="396" y="1461" type="line"></point>
      <point x="602" y="1461" type="line"></point>
      <point x="602" y="1579" type="line"></point>
      <point x="11" y="1579" type="line"></point>
      <point x="11" y="1461" type="line"></point>
      <point x="213" y="1461" type="line"></point>
      <point x="213" y="112" type="line"></point>
      <point x="11" y="112" type="line"></point>
    </contour>
    <contour>
      <point x="820" y="-90" type="line"></point>
      <point x="1228" y="-90"></point>
      <point x="1287" y="168"></point>
      <point x="1287" y="514" type="curve" smooth="yes"></point>
      <point x="1287" y="1579" type="line"></point>
      <point x="1095" y="1579" type="line"></point>
      <point x="1095" y="479" type="line" smooth="yes"></point>
      <point x="1095" y="203"></point>
      <point x="1081" y="83"></point>
      <point x="773" y="37" type="curve"></point>
    </contour>
  </outline>
</glyph>
<glyph name="ij" format="1">
  <advance width="1028"></advance>
  <unicode hex="0133"></unicode>
  <outline>
    <contour>
      <point x="540" y="-373" type="line"></point>
      <point x="778" y="-315"></point>
      <point x="871" y="-68"></point>
      <point x="871" y="154" type="curve" smooth="yes"></point>
      <point x="871" y="1169" type="line"></point>
      <point x="681" y="1169" type="line"></point>
      <point x="681" y="176" type="line" smooth="yes"></point>
      <point x="681" y="-14"></point>
      <point x="667" y="-147"></point>
      <point x="493" y="-258" type="curve"></point>
    </contour>
    <contour>
      <point x="157" y="0" type="line"></point>
      <point x="339" y="0" type="line"></point>
      <point x="339" y="1169" type="line"></point>
      <point x="157" y="1169" type="line"></point>
    </contour>
    <contour>
      <point x="252" y="1347" type="curve" smooth="yes"></point>
      <point x="317" y="1347"></point>
      <point x="360" y="1400"></point>
      <point x="360" y="1462" type="curve" smooth="yes"></point>
      <point x="360" y="1524"></point>
      <point x="317" y="1577"></point>
      <point x="252" y="1577" type="curve" smooth="yes"></point>
      <point x="189" y="1577"></point>
      <point x="140" y="1524"></point>
      <point x="140" y="1462" type="curve" smooth="yes"></point>
      <point x="140" y="1399"></point>
      <point x="188" y="1347"></point>
    </contour>
    <contour>
      <point x="775" y="1347" type="curve" smooth="yes"></point>
      <point x="840" y="1347"></point>
      <point x="883" y="1400"></point>
      <point x="883" y="1462" type="curve" smooth="yes"></point>
      <point x="883" y="1524"></point>
      <point x="840" y="1577"></point>
      <point x="775" y="1577" type="curve" smooth="yes"></point>
      <point x="712" y="1577"></point>
      <point x="663" y="1524"></point>
      <point x="663" y="1462" type="curve" smooth="yes"></point>
      <point x="663" y="1399"></point>
      <point x="711" y="1347"></point>
    </contour>
  </outline>
</glyph>
<glyph name="Lslash" format="1">
  <advance width="1294"></advance>
  <unicode hex="0141"></unicode>
  <outline>
    <contour>
      <point x="197" y="0" type="line"></point>
      <point x="1137" y="0" type="line"></point>
      <point x="1137" y="143" type="line"></point>
      <point x="391" y="143" type="line"></point>
      <point x="391" y="1579" type="line"></point>
      <point x="197" y="1579" type="line"></point>
    </contour>
  </outline>
</glyph>
<glyph name="OE" format="1">
  <advance width="2190"></advance>
  <unicode hex="0152"></unicode>
  <outline>
    <contour>
      <point x="789" y="-41" type="curve" smooth="yes"></point>
      <point x="1006" y="-41"></point>
      <point x="1151" y="31"></point>
      <point x="1245" y="149" type="curve"></point>
      <point x="1245" y="0" type="line"></point>
      <point x="2228" y="0" type="line"></point>
      <point x="2228" y="143" type="line"></point>
      <point x="1439" y="143" type="line"></point>
      <point x="1439" y="776" type="line"></point>
      <point x="2117" y="776" type="line"></point>
      <point x="2117" y="891" type="line"></point>
      <point x="1439" y="891" type="line"></point>
      <point x="1439" y="1436" type="line"></point>
      <point x="2215" y="1436" type="line"></point>
      <point x="2215" y="1579" type="line"></point>
      <point x="1245" y="1579" type="line"></point>
      <point x="1245" y="1418" type="line"></point>
      <point x="1149" y="1538"></point>
      <point x="1000" y="1610"></point>
      <point x="775" y="1610" type="curve" smooth="yes"></point>
      <point x="290" y="1610"></point>
      <point x="135" y="1214"></point>
      <point x="135" y="784" type="curve" smooth="yes"></point>
      <point x="135" y="335"></point>
      <point x="291" y="-41"></point>
    </contour>
    <contour>
      <point x="800" y="111" type="curve" smooth="yes"></point>
      <point x="406" y="111"></point>
      <point x="335" y="458"></point>
      <point x="335" y="784" type="curve" smooth="yes"></point>
      <point x="335" y="1101"></point>
      <point x="398" y="1458"></point>
      <point x="791" y="1458" type="curve" smooth="yes"></point>
      <point x="1181" y="1458"></point>
      <point x="1245" y="1103"></point>
      <point x="1245" y="784" type="curve" smooth="yes"></point>
      <point x="1245" y="480"></point>
      <point x="1181" y="111"></point>
    </contour>
  </outline>
</glyph>
<glyph name="oe" format="1">
  <advance width="1924"></advance>
  <unicode hex="0153"></unicode>
  <outline>
    <contour>
      <point x="594" y="-20" type="curve" smooth="yes"></point>
      <point x="801" y="-20"></point>
      <point x="946" y="69"></point>
      <point x="1031" y="208" type="curve"></point>
      <point x="1114" y="69"></point>
      <point x="1257" y="-20"></point>
      <point x="1466" y="-20" type="curve" smooth="yes"></point>
      <point x="1588" y="-20"></point>
      <point x="1747" y="30"></point>
      <point x="1846" y="99" type="curve"></point>
      <point x="1784" y="244" type="line"></point>
      <point x="1699" y="165"></point>
      <point x="1591" y="117"></point>
      <point x="1478" y="117" type="curve" smooth="yes"></point>
      <point x="1212" y="117"></point>
      <point x="1131" y="326"></point>
      <point x="1129" y="563" type="curve"></point>
      <point x="1889" y="563" type="line"></point>
      <point x="1895" y="600"></point>
      <point x="1900" y="638"></point>
      <point x="1900" y="676" type="curve" smooth="yes"></point>
      <point x="1900" y="957"></point>
      <point x="1763" y="1190"></point>
      <point x="1457" y="1190" type="curve" smooth="yes"></point>
      <point x="1256" y="1190"></point>
      <point x="1117" y="1095"></point>
      <point x="1034" y="953" type="curve"></point>
      <point x="949" y="1097"></point>
      <point x="804" y="1190"></point>
      <point x="594" y="1190" type="curve" smooth="yes"></point>
      <point x="235" y="1190"></point>
      <point x="64" y="914"></point>
      <point x="64" y="582" type="curve" smooth="yes"></point>
      <point x="64" y="249"></point>
      <point x="235" y="-20"></point>
    </contour>
    <contour>
      <point x="594" y="117" type="curve" smooth="yes"></point>
      <point x="324" y="117"></point>
      <point x="246" y="352"></point>
      <point x="246" y="582" type="curve" smooth="yes"></point>
      <point x="246" y="812"></point>
      <point x="323" y="1051"></point>
      <point x="594" y="1051" type="curve" smooth="yes"></point>
      <point x="865" y="1051"></point>
      <point x="942" y="812"></point>
      <point x="942" y="582" type="curve" smooth="yes"></point>
      <point x="942" y="351"></point>
      <point x="866" y="117"></point>
    </contour>
    <contour>
      <point x="1133" y="682" type="line"></point>
      <point x="1150" y="882"></point>
      <point x="1230" y="1057"></point>
      <point x="1458" y="1057" type="curve" smooth="yes"></point>
      <point x="1663" y="1057"></point>
      <point x="1732" y="898"></point>
      <point x="1732" y="717" type="curve" smooth="yes"></point>
      <point x="1732" y="682" type="line"></point>
    </contour>
  </outline>
</glyph>
<glyph name="florin" format="1">
  <advance width="1095"></advance>
  <unicode hex="0192"></unicode>
  <outline>
    <contour>
      <point x="105" y="-340" type="curve" smooth="yes"></point>
      <point x="437" y="-340"></point>
      <point x="485" y="-119"></point>
      <point x="524" y="210" type="curve" smooth="yes"></point>
      <point x="622" y="1034" type="line"></point>
      <point x="970" y="1034" type="line"></point>
      <point x="981" y="1139" type="line"></point>
      <point x="633" y="1139" type="line"></point>
      <point x="651" y="1314.17254367"></point>
      <point x="621" y="1516.0"></point>
      <point x="838" y="1516" type="curve" smooth="yes"></point>
      <point x="897" y="1516"></point>
      <point x="947" y="1480"></point>
      <point x="985" y="1442" type="curve"></point>
      <point x="1061" y="1567" type="line"></point>
      <point x="1001" y="1615"></point>
      <point x="910" y="1659"></point>
      <point x="829" y="1659" type="curve" smooth="yes"></point>
      <point x="525" y="1659"></point>
      <point x="471" y="1406"></point>
      <point x="443" y="1139" type="curve"></point>
      <point x="248" y="1139" type="line"></point>
      <point x="237" y="1034" type="line"></point>
      <point x="432" y="1034" type="line"></point>
      <point x="328" y="138" type="line" smooth="yes"></point>
      <point x="304" y="-87"></point>
      <point x="287" y="-183"></point>
      <point x="135" y="-183" type="curve" smooth="yes"></point>
      <point x="95" y="-183"></point>
      <point x="44" y="-168"></point>
      <point x="-18" y="-133" type="curve"></point>
      <point x="-93" y="-258" type="line"></point>
      <point x="-41" y="-301"></point>
      <point x="34" y="-340"></point>
    </contour>
  </outline>
</glyph>
<glyph name="uni0237" format="1">
  <advance width="929"></advance>
  <unicode hex="0237"></unicode>
  <outline>
    <contour>
      <point x="347" y="-373" type="line"></point>
      <point x="585" y="-315"></point>
      <point x="678" y="-68"></point>
      <point x="678" y="154" type="curve" smooth="yes"></point>
      <point x="678" y="1169" type="line"></point>
      <point x="488" y="1169" type="line"></point>
      <point x="488" y="176" type="line" smooth="yes"></point>
      <point x="488" y="-14"></point>
      <point x="474" y="-147"></point>
      <point x="300" y="-258" type="curve"></point>
    </contour>
  </outline>
</glyph>
<glyph name="circumflex" format="1">
  <advance width="929"></advance>
  <unicode hex="02C6"></unicode>
  <outline>
    <contour>
      <point x="112" y="510" type="line"></point>
      <point x="230" y="432" type="line"></point>
      <point x="452" y="819" type="line"></point>
      <point x="674" y="432" type="line"></point>
      <point x="792" y="510" type="line"></point>
      <point x="500" y="964" type="line"></point>
      <point x="404" y="964" type="line"></point>
    </contour>
  </outline>
</glyph>
<glyph name="caron" format="1">
  <advance width="929"></advance>
  <unicode hex="02C7"></unicode>
  <outline>
    <contour>
      <point x="404" y="432" type="line"></point>
      <point x="500" y="432" type="line"></point>
      <point x="792" y="886" type="line"></point>
      <point x="674" y="964" type="line"></point>
      <point x="452" y="577" type="line"></point>
      <point x="230" y="964" type="line"></point>
      <point x="112" y="886" type="line"></point>
    </contour>
  </outline>
</glyph>
<glyph name="ogonek" format="1">
  <advance width="829"></advance>
  <unicode hex="02DB"></unicode>
  <outline>
    <contour>
      <point x="514" y="-578" type="curve" smooth="yes"></point>
      <point x="577" y="-578"></point>
      <point x="639" y="-560"></point>
      <point x="698" y="-540" type="curve"></point>
      <point x="698" y="-423" type="line"></point>
      <point x="658" y="-437"></point>
      <point x="573" y="-464"></point>
      <point x="534" y="-464" type="curve" smooth="yes"></point>
      <point x="434" y="-464"></point>
      <point x="398" y="-423"></point>
      <point x="398" y="-364" type="curve" smooth="yes"></point>
      <point x="398" y="-208"></point>
      <point x="648" y="76"></point>
      <point x="648" y="76" type="curve"></point>
      <point x="527" y="76" type="line"></point>
      <point x="490" y="33"></point>
      <point x="250" y="-235"></point>
      <point x="250" y="-414" type="curve" smooth="yes"></point>
      <point x="250" y="-508"></point>
      <point x="317" y="-578"></point>
    </contour>
  </outline>
</glyph>
<glyph name="uni0311" format="1">
  <advance width="829"></advance>
  <unicode hex="0311"></unicode>
  <outline>
    <contour>
      <point x="167" y="899" type="curve"></point>
      <point x="264" y="899" type="line"></point>
      <point x="264" y="980"></point>
      <point x="326" y="1048"></point>
      <point x="409" y="1048" type="curve" smooth="yes"></point>
      <point x="493" y="1048"></point>
      <point x="550" y="981"></point>
      <point x="550" y="899" type="curve"></point>
      <point x="647" y="899" type="line"></point>
      <point x="647" y="1035"></point>
      <point x="548" y="1139"></point>
      <point x="411" y="1139" type="curve" smooth="yes"></point>
      <point x="272" y="1139"></point>
      <point x="167" y="1039"></point>
    </contour>
  </outline>
</glyph>
<glyph name="mu" format="1">
  <advance width="1294"></advance>
  <unicode hex="03BC"></unicode>
  <outline>
    <contour>
      <point x="328" y="-291" type="line"></point>
      <point x="328" y="113" type="line"></point>
      <point x="388" y="35"></point>
      <point x="466" y="-20"></point>
      <point x="568" y="-20" type="curve" smooth="yes"></point>
      <point x="727" y="-20"></point>
      <point x="861" y="54"></point>
      <point x="965" y="170" type="curve"></point>
      <point x="989" y="16" type="line"></point>
      <point x="1135" y="16" type="line"></point>
      <point x="1135" y="1169" type="line"></point>
      <point x="927" y="1169" type="line"></point>
      <point x="927" y="274" type="line"></point>
      <point x="852" y="183"></point>
      <point x="695" y="123"></point>
      <point x="580" y="123" type="curve" smooth="yes"></point>
      <point x="385" y="123"></point>
      <point x="328" y="270"></point>
      <point x="328" y="442" type="curve" smooth="yes"></point>
      <point x="328" y="1169" type="line"></point>
      <point x="154" y="1169" type="line"></point>
      <point x="154" y="-291" type="line"></point>
    </contour>
  </outline>
</glyph>
<glyph name="endash" format="1">
  <advance width="829"></advance>
  <unicode hex="2013"></unicode>
  <outline>
    <contour>
      <point x="174" y="555" type="line"></point>
      <point x="644" y="555" type="line"></point>
      <point x="644" y="699" type="line"></point>
      <point x="174" y="699" type="line"></point>
    </contour>
  </outline>
</glyph>
<glyph name="emdash" format="1">
  <advance width="1161"></advance>
  <unicode hex="2014"></unicode>
  <outline>
    <contour>
      <point x="105" y="555" type="line"></point>
      <point x="1045" y="555" type="line"></point>
      <point x="1045" y="699" type="line"></point>
      <point x="105" y="699" type="line"></point>
    </contour>
  </outline>
</glyph>
<glyph name="quotedblright" format="1">
  <advance width="896"></advance>
  <unicode hex="201D"></unicode>
  <outline>
    <contour>
      <point x="199" y="1033" type="line"></point>
      <point x="345" y="1075"></point>
      <point x="428" y="1176"></point>
      <point x="428" y="1330" type="curve" smooth="yes"></point>
      <point x="428" y="1579" type="line"></point>
      <point x="147" y="1579" type="line"></point>
      <point x="147" y="1286" type="line"></point>
      <point x="278" y="1286" type="line"></point>
      <point x="279" y="1191"></point>
      <point x="233" y="1156"></point>
      <point x="148" y="1127" type="curve"></point>
    </contour>
    <contour>
      <point x="568" y="1033" type="line"></point>
      <point x="714" y="1075"></point>
      <point x="797" y="1176"></point>
      <point x="797" y="1330" type="curve" smooth="yes"></point>
      <point x="797" y="1579" type="line"></point>
      <point x="516" y="1579" type="line"></point>
      <point x="516" y="1286" type="line"></point>
      <point x="647" y="1286" type="line"></point>
      <point x="648" y="1191"></point>
      <point x="602" y="1156"></point>
      <point x="517" y="1127" type="curve"></point>
    </contour>
  </outline>
</glyph>
<glyph name="quotedblbase" format="1">
  <advance width="962"></advance>
  <unicode hex="201E"></unicode>
  <outline>
    <contour>
      <point x="199" y="-272" type="line"></point>
      <point x="345" y="-230"></point>
      <point x="428" y="-129"></point>
      <point x="428" y="25" type="curve" smooth="yes"></point>
      <point x="428" y="274" type="line"></point>
      <point x="147" y="274" type="line"></point>
      <point x="147" y="-19" type="line"></point>
      <point x="278" y="-19" type="line"></point>
      <point x="279" y="-114"></point>
      <point x="233" y="-149"></point>
      <point x="148" y="-178" type="curve"></point>
    </contour>
    <contour>
      <point x="568" y="-272" type="line"></point>
      <point x="714" y="-230"></point>
      <point x="797" y="-129"></point>
      <point x="797" y="25" type="curve" smooth="yes"></point>
      <point x="797" y="274" type="line"></point>
      <point x="516" y="274" type="line"></point>
      <point x="516" y="-19" type="line"></point>
      <point x="647" y="-19" type="line"></point>
      <point x="648" y="-114"></point>
      <point x="602" y="-149"></point>
      <point x="517" y="-178" type="curve"></point>
    </contour>
  </outline>
</glyph>
<glyph name="bullet" format="1">
  <advance width="929"></advance>
  <unicode hex="2022"></unicode>
  <outline>
    <contour>
      <point x="467" y="358" type="curve" smooth="yes"></point>
      <point x="657" y="358"></point>
      <point x="817" y="497"></point>
      <point x="817" y="692" type="curve" smooth="yes"></point>
      <point x="817" y="884"></point>
      <point x="654" y="1028"></point>
      <point x="467" y="1028" type="curve" smooth="yes"></point>
      <point x="278" y="1028"></point>
      <point x="119" y="885"></point>
      <point x="119" y="692" type="curve" smooth="yes"></point>
      <point x="119" y="500"></point>
      <point x="279" y="358"></point>
    </contour>
  </outline>
</glyph>
<glyph name="guilsinglright" format="1">
  <advance width="896"></advance>
  <unicode hex="203A"></unicode>
  <outline>
    <contour>
      <point x="154" y="99" type="line"></point>
      <point x="762" y="481" type="line"></point>
      <point x="762" y="666" type="line"></point>
      <point x="154" y="1049" type="line"></point>
      <point x="154" y="842" type="line"></point>
      <point x="600" y="577" type="line"></point>
      <point x="154" y="306" type="line"></point>
    </contour>
  </outline>
</glyph>
<glyph name="fraction" format="1">
  <advance width="1261"></advance>
  <unicode hex="2044"></unicode>
  <outline>
    <contour>
      <point x="179" y="-123" type="line"></point>
      <point x="1220" y="1272" type="line"></point>
      <point x="1098" y="1365" type="line"></point>
      <point x="59" y="-30" type="line"></point>
    </contour>
  </outline>
</glyph>
<glyph name="Euro" format="1">
  <advance width="1194"></advance>
  <unicode hex="20AC"></unicode>
  <outline>
    <contour>
      <point x="701" y="-38" type="curve" smooth="yes"></point>
      <point x="809" y="-38"></point>
      <point x="980" y="-13"></point>
      <point x="1071" y="55" type="curve"></point>
      <point x="1019" y="178" type="line"></point>
      <point x="939" y="130"></point>
      <point x="826" y="102"></point>
      <point x="734" y="102" type="curve" smooth="yes"></point>
      <point x="481" y="102"></point>
      <point x="415" y="369"></point>
      <point x="415" y="574" type="curve"></point>
      <point x="769" y="574" type="line"></point>
      <point x="769" y="696" type="line"></point>
      <point x="416" y="696" type="line"></point>
      <point x="417" y="733"></point>
      <point x="416" y="772"></point>
      <point x="421" y="809" type="curve"></point>
      <point x="826" y="809" type="line"></point>
      <point x="826" y="931" type="line"></point>
      <point x="432" y="931" type="line"></point>
      <point x="432" y="1152"></point>
      <point x="533" y="1308"></point>
      <point x="768" y="1308" type="curve" smooth="yes"></point>
      <point x="856" y="1308"></point>
      <point x="952" y="1288"></point>
      <point x="1033" y="1254" type="curve"></point>
      <point x="1076" y="1376" type="line"></point>
      <point x="987" y="1422"></point>
      <point x="870" y="1439"></point>
      <point x="771" y="1439" type="curve" smooth="yes"></point>
      <point x="450" y="1439"></point>
      <point x="289" y="1238"></point>
      <point x="270" y="931" type="curve"></point>
      <point x="66" y="931" type="line"></point>
      <point x="66" y="809" type="line"></point>
      <point x="246" y="809" type="line"></point>
      <point x="242" y="696" type="line"></point>
      <point x="82" y="696" type="line"></point>
      <point x="82" y="574" type="line"></point>
      <point x="246" y="574" type="line"></point>
      <point x="256" y="312"></point>
      <point x="387" y="-38"></point>
    </contour>
  </outline>
</glyph>
<glyph name="trademark" format="1">
  <advance width="1526"></advance>
  <unicode hex="2122"></unicode>
  <outline>
    <contour>
      <point x="636" y="624" type="line"></point>
      <point x="764" y="624" type="line"></point>
      <point x="764" y="1288" type="line"></point>
      <point x="960" y="624" type="line"></point>
      <point x="1138" y="624" type="line"></point>
      <point x="1335" y="1288" type="line"></point>
      <point x="1335" y="624" type="line"></point>
      <point x="1462" y="624" type="line"></point>
      <point x="1462" y="1413" type="line"></point>
      <point x="1233" y="1413" type="line"></point>
      <point x="1049" y="758" type="line"></point>
      <point x="865" y="1413" type="line"></point>
      <point x="636" y="1413" type="line"></point>
    </contour>
    <contour>
      <point x="182" y="624" type="line"></point>
      <point x="317" y="624" type="line"></point>
      <point x="317" y="1310" type="line"></point>
      <point x="526" y="1310" type="line"></point>
      <point x="526" y="1413" type="line"></point>
      <point x="-24" y="1413" type="line"></point>
      <point x="-24" y="1310" type="line"></point>
      <point x="182" y="1310" type="line"></point>
    </contour>
  </outline>
</glyph>
<glyph name="uni2206" format="1">
  <advance width="1061"></advance>
  <unicode hex="2206"></unicode>
  <outline>
    <contour>
      <point x="243" y="253" type="line"></point>
      <point x="533" y="1036" type="line"></point>
      <point x="823" y="253" type="line"></point>
    </contour>
    <contour>
      <point x="57" y="143" type="line"></point>
      <point x="1009" y="143" type="line"></point>
      <point x="533" y="1326" type="line"></point>
    </contour>
  </outline>
</glyph>
<glyph name="approxequal" format="1">
  <advance width="1028"></advance>
  <unicode hex="2248"></unicode>
  <outline>
    <contour>
      <point x="694" y="390" type="curve" smooth="yes"></point>
      <point x="831" y="390"></point>
      <point x="886" y="521"></point>
      <point x="886" y="640" type="curve"></point>
      <point x="730" y="640" type="line"></point>
      <point x="730" y="601"></point>
      <point x="725" y="529"></point>
      <point x="671" y="529" type="curve" smooth="yes"></point>
      <point x="569" y="529"></point>
      <point x="472" y="654"></point>
      <point x="327" y="654" type="curve" smooth="yes"></point>
      <point x="170" y="654"></point>
      <point x="126" y="531"></point>
      <point x="126" y="394" type="curve"></point>
      <point x="282" y="394" type="line"></point>
      <point x="282" y="436"></point>
      <point x="283" y="509"></point>
      <point x="341" y="509" type="curve" smooth="yes"></point>
      <point x="416" y="509"></point>
      <point x="548" y="390"></point>
    </contour>
  </outline>
</glyph>
<glyph name="lozenge" format="1">
  <advance width="1161"></advance>
  <unicode hex="25CA"></unicode>
  <outline>
    <contour>
      <point x="583" y="220" type="line"></point>
      <point x="293" y="663" type="line"></point>
      <point x="583" y="1106" type="line"></point>
      <point x="873" y="663" type="line"></point>
    </contour>
    <contour>
      <point x="583" y="0" type="line"></point>
      <point x="1059" y="663" type="line"></point>
      <point x="583" y="1326" type="line"></point>
      <point x="107" y="663" type="line"></point>
    </contour>
  </outline>
</glyph>
<glyph name="ff" format="1">
  <advance width="1294"></advance>
  <unicode hex="FB00"></unicode>
  <outline>
    <contour>
      <point x="160" y="0" type="line"></point>
      <point x="350" y="0" type="line"></point>
      <point x="350" y="1064" type="line"></point>
      <point x="853" y="1064" type="line"></point>
      <point x="853" y="0" type="line"></point>
      <point x="1043" y="0" type="line"></point>
      <point x="1043" y="1064" type="line"></point>
      <point x="1391" y="1064" type="line"></point>
      <point x="1391" y="1169" type="line"></point>
      <point x="1043" y="1169" type="line"></point>
      <point x="1043" y="1332"></point>
      <point x="993" y="1516"></point>
      <point x="1208" y="1516" type="curve" smooth="yes"></point>
      <point x="1267" y="1516"></point>
      <point x="1321" y="1480"></point>
      <point x="1363" y="1442" type="curve"></point>
      <point x="1426" y="1567" type="line"></point>
      <point x="1361" y="1615"></point>
      <point x="1265" y="1659"></point>
      <point x="1184" y="1659" type="curve" smooth="yes"></point>
      <point x="880" y="1659"></point>
      <point x="853" y="1421"></point>
      <point x="853" y="1169" type="curve"></point>
      <point x="350" y="1169" type="line"></point>
      <point x="350" y="1332"></point>
      <point x="300" y="1516"></point>
      <point x="515" y="1516" type="curve" smooth="yes"></point>
      <point x="574" y="1516"></point>
      <point x="628" y="1480"></point>
      <point x="670" y="1442" type="curve"></point>
      <point x="733" y="1567" type="line"></point>
      <point x="668" y="1615"></point>
      <point x="572" y="1659"></point>
      <point x="491" y="1659" type="curve" smooth="yes"></point>
      <point x="187" y="1659"></point>
      <point x="160" y="1421"></point>
      <point x="160" y="1169" type="curve"></point>
      <point x="-31" y="1169" type="line"></point>
      <point x="-31" y="1064" type="line"></point>
      <point x="160" y="1064" type="line"></point>
    </contour>
  </outline>
</glyph>
<glyph name="uniFB01" format="1">
  <advance width="1227"></advance>
  <unicode hex="FB01"></unicode>
  <outline>
    <contour>
      <point x="188" y="0" type="line"></point>
      <point x="378" y="0" type="line"></point>
      <point x="378" y="1064" type="line"></point>
      <point x="877" y="1064" type="line"></point>
      <point x="877" y="0" type="line"></point>
      <point x="1059" y="0" type="line"></point>
      <point x="1059" y="1169" type="line"></point>
      <point x="378" y="1169" type="line"></point>
      <point x="378" y="1332"></point>
      <point x="328" y="1516"></point>
      <point x="543" y="1516" type="curve" smooth="yes"></point>
      <point x="602" y="1516"></point>
      <point x="656" y="1480"></point>
      <point x="698" y="1442" type="curve"></point>
      <point x="761" y="1567" type="line"></point>
      <point x="696" y="1615"></point>
      <point x="600" y="1659"></point>
      <point x="519" y="1659" type="curve" smooth="yes"></point>
      <point x="215" y="1659"></point>
      <point x="188" y="1421"></point>
      <point x="188" y="1169" type="curve"></point>
      <point x="-4" y="1169" type="line"></point>
      <point x="-4" y="1064" type="line"></point>
      <point x="188" y="1064" type="line"></point>
    </contour>
    <contour>
      <point x="972" y="1347" type="curve" smooth="yes"></point>
      <point x="1037" y="1347"></point>
      <point x="1080" y="1400"></point>
      <point x="1080" y="1462" type="curve" smooth="yes"></point>
      <point x="1080" y="1524"></point>
      <point x="1037" y="1577"></point>
      <point x="972" y="1577" type="curve" smooth="yes"></point>
      <point x="909" y="1577"></point>
      <point x="860" y="1524"></point>
      <point x="860" y="1462" type="curve" smooth="yes"></point>
      <point x="860" y="1399"></point>
      <point x="908" y="1347"></point>
    </contour>
  </outline>
</glyph>
<glyph name="uniFB02" format="1">
  <advance width="1227"></advance>
  <unicode hex="FB02"></unicode>
  <outline>
    <contour>
      <point x="188" y="0" type="line"></point>
      <point x="378" y="0" type="line"></point>
      <point x="378" y="1064" type="line"></point>
      <point x="726" y="1064" type="line"></point>
      <point x="726" y="1169" type="line"></point>
      <point x="378" y="1169" type="line"></point>
      <point x="378" y="1448"></point>
      <point x="442" y="1514"></point>
      <point x="656" y="1514" type="curve" smooth="yes"></point>
      <point x="717" y="1514"></point>
      <point x="791" y="1508"></point>
      <point x="879" y="1501" type="curve"></point>
      <point x="879" y="0" type="line"></point>
      <point x="1069" y="0" type="line"></point>
      <point x="1069" y="1614" type="line"></point>
      <point x="917" y="1638"></point>
      <point x="777" y="1657"></point>
      <point x="656" y="1657" type="curve" smooth="yes"></point>
      <point x="371" y="1657"></point>
      <point x="188" y="1553"></point>
      <point x="188" y="1169" type="curve"></point>
      <point x="-4" y="1169" type="line"></point>
      <point x="-4" y="1064" type="line"></point>
      <point x="188" y="1064" type="line"></point>
    </contour>
  </outline>
</glyph>
<glyph name=".notdef" format="1">
  <advance width="1061"></advance>
  <outline>
    <contour>
      <point x="326" y="68" type="line"></point>
      <point x="326" y="1297" type="line"></point>
      <point x="734" y="1297" type="line"></point>
      <point x="734" y="68" type="line"></point>
    </contour>
    <contour>
      <point x="258" y="0" type="line"></point>
      <point x="802" y="0" type="line"></point>
      <point x="802" y="1365" type="line"></point>
      <point x="258" y="1365" type="line"></point>
    </contour>
  </outline>
</glyph>
